运行 java测试 案例 com.example.demo.FFmpegJNITest
sbc run -t -v /home/user/JAVA-TEST/java-rtf-test/ffmpeg/files:/tmp@/home/user/JAVA-TEST/java-rtf-test/rmi.sh:/opt/app/lib/logback-classic-1.2.3.jar@/home/user/JAVA-TEST/java-rtf-test/test-classes/com:/opt/app/test-classes/com -p docker.bplatform.demo/java_rtf_lx:2.1 docker.bplatform.demo/java_rtf_test_all:1.0  /opt/app/runTest com.example.demo.FFmpegJNITest encode_video /tmp/02.yuv /tmp/02.mpg
TEST_DIR=/opt/app
/usr/lib/jvm/java-11-openjdk-mips64el/bin/java -classpath /opt/app/lib/*:/opt/app/classes:/opt/app/test-classes com.example.demo.FFmpegJNITest encode_video /tmp/02.yuv /tmp/02.mpg
OpenJDK 64-Bit Zero VM warning: You have loaded library /usr/lib/libffmpeg-jni.so which might have disabled stack guard. The VM will try to fix the stack guard now.
It's highly recommended that you fix the library with 'execstack -c <libfile>', or link it with '-z noexecstack'.
视频编码
Output #0, mpeg, to '/tmp/02.mpg':
    Stream #0:0: Video: mpeg1video, yuv420p, 640x480, q=2-31, 400 kb/s, 25 tbn
[48;5;0m[38;5;213m[mpeg @ 0x7ffff06d2360] [0m[48;5;0m[38;5;226mVBV buffer size not set, using default size of 230KB
If you want the mpeg file to be compliant to some specification
Like DVD, VCD or others, make sure you set the correct buffer size
[0mpts:0 pts_time:0 dts:-3600 dts_time:-0.04 duration:0 duration_time:0 stream_index:0
pts:3600 pts_time:0.04 dts:0 dts_time:0 duration:0 duration_time:0 stream_index:0
[48;5;0m[38;5;213m[mpeg @ 0x7ffff06d2360] [0m[48;5;0m[38;5;196mbuffer underflow st=0 bufi=11158 size=17451
[0m[48;5;0m[38;5;213m[mpeg @ 0x7ffff06d2360] [0m[48;5;0m[38;5;196mbuffer underflow st=0 bufi=13199 size=17451
[0m[48;5;0m[38;5;213m[mpeg @ 0x7ffff06d2360] [0m[48;5;0m[38;5;196mbuffer underflow st=0 bufi=15240 size=17451
[0m[48;5;0m[38;5;213m[mpeg @ 0x7ffff06d2360] [0m[48;5;0m[38;5;196mbuffer underflow st=0 bufi=17281 size=17451
[0mpts:7200 pts_time:0.08 dts:3600 dts_time:0.04 duration:0 duration_time:0 stream_index:0
[48;5;0m[38;5;213m[mpeg @ 0x7ffff06d2360] [0m[48;5;0m[38;5;196mbuffer underflow st=0 bufi=1862 size=20841
[0m[48;5;0m[38;5;213m[mpeg @ 0x7ffff06d2360] [0m[48;5;0m[38;5;196mbuffer underflow st=0 bufi=3903 size=20841
[0m[48;5;0m[38;5;213m[mpeg @ 0x7ffff06d2360] [0m[48;5;0m[38;5;196mbuffer underflow st=0 bufi=5944 size=20841
[0m[48;5;0m[38;5;213m[mpeg @ 0x7ffff06d2360] [0m[48;5;0m[38;5;196mbuffer underflow st=0 bufi=7985 size=20841
[0m[48;5;0m[38;5;213m[mpeg @ 0x7ffff06d2360] [0m[48;5;0m[38;5;196mbuffer underflow st=0 bufi=10026 size=20841
[0m[48;5;0m[38;5;213m[mpeg @ 0x7ffff06d2360] [0m[48;5;0m[38;5;196mbuffer underflow st=0 bufi=12067 size=20841
[0m[48;5;0m[38;5;213m[mpeg @ 0x7ffff06d2360] [0m[48;5;0m[38;5;196mbuffer underflow st=0 bufi=14108 size=20841
[0m[48;5;0m[38;5;213m[mpeg @ 0x7ffff06d2360] [0m[48;5;0m[38;5;196mbuffer underflow st=0 bufi=16149 size=20841
[0m[48;5;0m[38;5;213m[mpeg @ 0x7ffff06d2360] [0m[48;5;0m[38;5;196mbuffer underflow st=0 bufi=18190 size=20841
[0m[48;5;0m[38;5;213m[mpeg @ 0x7ffff06d2360] [0m[48;5;0m[38;5;196mbuffer underflow st=0 bufi=20231 size=20841
[0mpts:10800 pts_time:0.12 dts:7200 dts_time:0.08 duration:0 duration_time:0 stream_index:0
[48;5;0m[38;5;213m[mpeg @ 0x7ffff06d2360] [0m[48;5;0m[38;5;196mbuffer underflow st=0 bufi=1422 size=4737
[0m[48;5;0m[38;5;213m[mpeg @ 0x7ffff06d2360] [0m[48;5;0m[38;5;196mbuffer underflow st=0 bufi=3463 size=4737
[0mpts:14400 pts_time:0.16 dts:10800 dts_time:0.12 duration:0 duration_time:0 stream_index:0
[48;5;0m[38;5;213m[mpeg @ 0x7ffff06d2360] [0m[48;5;0m[38;5;196mbuffer underflow st=0 bufi=758 size=3304
[0m[48;5;0m[38;5;213m[mpeg @ 0x7ffff06d2360] [0m[48;5;0m[38;5;196mbuffer underflow st=0 bufi=2799 size=3304
[0mpts:18000 pts_time:0.2 dts:14400 dts_time:0.16 duration:0 duration_time:0 stream_index:0
[48;5;0m[38;5;213m[mpeg @ 0x7ffff06d2360] [0m[48;5;0m[38;5;196mbuffer underflow st=0 bufi=1527 size=3734
[0m[48;5;0m[38;5;213m[mpeg @ 0x7ffff06d2360] [0m[48;5;0m[38;5;196mbuffer underflow st=0 bufi=3568 size=3734
[0mpts:21600 pts_time:0.24 dts:18000 dts_time:0.2 duration:0 duration_time:0 stream_index:0
[48;5;0m[38;5;213m[mpeg @ 0x7ffff06d2360] [0m[48;5;0m[38;5;196mbuffer underflow st=0 bufi=1866 size=3417
[0mpts:25200 pts_time:0.28 dts:21600 dts_time:0.24 duration:0 duration_time:0 stream_index:0
[48;5;0m[38;5;213m[mpeg @ 0x7ffff06d2360] [0m[48;5;0m[38;5;196mbuffer underflow st=0 bufi=481 size=2842
[0m[48;5;0m[38;5;213m[mpeg @ 0x7ffff06d2360] [0m[48;5;0m[38;5;196mbuffer underflow st=0 bufi=2522 size=2842
[0mpts:28800 pts_time:0.32 dts:25200 dts_time:0.28 duration:0 duration_time:0 stream_index:0
[48;5;0m[38;5;213m[mpeg @ 0x7ffff06d2360] [0m[48;5;0m[38;5;196mbuffer underflow st=0 bufi=1712 size=2548
[0mpts:32400 pts_time:0.36 dts:28800 dts_time:0.32 duration:0 duration_time:0 stream_index:0
[48;5;0m[38;5;213m[mpeg @ 0x7ffff06d2360] [0m[48;5;0m[38;5;196mbuffer underflow st=0 bufi=1196 size=19710
[0m[48;5;0m[38;5;213m[mpeg @ 0x7ffff06d2360] [0m[48;5;0m[38;5;196mbuffer underflow st=0 bufi=3237 size=19710
[0m[48;5;0m[38;5;213m[mpeg @ 0x7ffff06d2360] [0m[48;5;0m[38;5;196mbuffer underflow st=0 bufi=5278 size=19710
[0m[48;5;0m[38;5;213m[mpeg @ 0x7ffff06d2360] [0m[48;5;0m[38;5;196mbuffer underflow st=0 bufi=7319 size=19710
[0m[48;5;0m[38;5;213m[mpeg @ 0x7ffff06d2360] [0m[48;5;0m[38;5;196mbuffer underflow st=0 bufi=9360 size=19710
[0m[48;5;0m[38;5;213m[mpeg @ 0x7ffff06d2360] [0m[48;5;0m[38;5;196mbuffer underflow st=0 bufi=11401 size=19710
[0m[48;5;0m[38;5;213m[mpeg @ 0x7ffff06d2360] [0m[48;5;0m[38;5;196mbuffer underflow st=0 bufi=13442 size=19710
[0m[48;5;0m[38;5;213m[mpeg @ 0x7ffff06d2360] [0m[48;5;0m[38;5;196mbuffer underflow st=0 bufi=15483 size=19710
[0m[48;5;0m[38;5;213m[mpeg @ 0x7ffff06d2360] [0m[48;5;0m[38;5;196mbuffer underflow st=0 bufi=17524 size=19710
[0m[48;5;0m[38;5;213m[mpeg @ 0x7ffff06d2360] [0m[48;5;0m[38;5;196mbuffer underflow st=0 bufi=19565 size=19710
[0mpts:36000 pts_time:0.4 dts:32400 dts_time:0.36 duration:0 duration_time:0 stream_index:0
[48;5;0m[38;5;213m[mpeg @ 0x7ffff06d2360] [0m[48;5;0m[38;5;196mbuffer underflow st=0 bufi=1887 size=2146
[0mpts:39600 pts_time:0.44 dts:36000 dts_time:0.4 duration:0 duration_time:0 stream_index:0
[48;5;0m[38;5;213m[mpeg @ 0x7ffff06d2360] [0m[48;5;0m[38;5;196mbuffer underflow st=0 bufi=1773 size=9288
[0m[48;5;0m[38;5;213m[mpeg @ 0x7ffff06d2360] [0m[48;5;0m[38;5;196mbuffer underflow st=0 bufi=3814 size=9288
[0m[48;5;0m[38;5;213m[mpeg @ 0x7ffff06d2360] [0m[48;5;0m[38;5;196mbuffer underflow st=0 bufi=5855 size=9288
[0m[48;5;0m[38;5;213m[mpeg @ 0x7ffff06d2360] [0m[48;5;0m[38;5;196mbuffer underflow st=0 bufi=7884 size=9288
[0mpts:43200 pts_time:0.48 dts:39600 dts_time:0.44 duration:0 duration_time:0 stream_index:0
[48;5;0m[38;5;213m[mpeg @ 0x7ffff06d2360] [0m[48;5;0m[38;5;196mbuffer underflow st=0 bufi=628 size=16136
[0m[48;5;0m[38;5;213m[mpeg @ 0x7ffff06d2360] [0m[48;5;0m[38;5;196mbuffer underflow st=0 bufi=2669 size=16136
[0m[48;5;0m[38;5;213m[mpeg @ 0x7ffff06d2360] [0m[48;5;0m[38;5;196mbuffer underflow st=0 bufi=4710 size=16136
[0m[48;5;0m[38;5;213m[mpeg @ 0x7ffff06d2360] [0m[48;5;0m[38;5;196mbuffer underflow st=0 bufi=6751 size=16136
[0m[48;5;0m[38;5;213m[mpeg @ 0x7ffff06d2360] [0m[48;5;0m[38;5;196mbuffer underflow st=0 bufi=8792 size=16136
[0m[48;5;0m[38;5;213m[mpeg @ 0x7ffff06d2360] [0m[48;5;0m[38;5;196mbuffer underflow st=0 bufi=10833 size=16136
[0m[48;5;0m[38;5;213m[mpeg @ 0x7ffff06d2360] [0m[48;5;0m[38;5;196mbuffer underflow st=0 bufi=12874 size=16136
[0m[48;5;0m[38;5;213m[mpeg @ 0x7ffff06d2360] [0m[48;5;0m[38;5;196mbuffer underflow st=0 bufi=14915 size=16136
[0mpts:46800 pts_time:0.52 dts:43200 dts_time:0.48 duration:0 duration_time:0 stream_index:0
[48;5;0m[38;5;213m[mpeg @ 0x7ffff06d2360] [0m[48;5;0m[38;5;196mbuffer underflow st=0 bufi=811 size=919
[0mpts:50400 pts_time:0.56 dts:46800 dts_time:0.52 duration:0 duration_time:0 stream_index:0
pts:54000 pts_time:0.6 dts:50400 dts_time:0.56 duration:0 duration_time:0 stream_index:0
[48;5;0m[38;5;213m[mpeg @ 0x7ffff06d2360] [0m[48;5;0m[38;5;196mbuffer underflow st=0 bufi=1034 size=1973
[0mpts:57600 pts_time:0.64 dts:54000 dts_time:0.6 duration:0 duration_time:0 stream_index:0
[48;5;0m[38;5;213m[mpeg @ 0x7ffff06d2360] [0m[48;5;0m[38;5;196mbuffer underflow st=0 bufi=1093 size=1212
[0mpts:61200 pts_time:0.68 dts:57600 dts_time:0.64 duration:0 duration_time:0 stream_index:0
[48;5;0m[38;5;213m[mpeg @ 0x7ffff06d2360] [0m[48;5;0m[38;5;196mbuffer underflow st=0 bufi=1913 size=7566
[0m[48;5;0m[38;5;213m[mpeg @ 0x7ffff06d2360] [0m[48;5;0m[38;5;196mbuffer underflow st=0 bufi=3954 size=7566
[0m[48;5;0m[38;5;213m[mpeg @ 0x7ffff06d2360] [0m[48;5;0m[38;5;196mbuffer underflow st=0 bufi=5995 size=7566
[0mpts:64800 pts_time:0.72 dts:61200 dts_time:0.68 duration:0 duration_time:0 stream_index:0
[48;5;0m[38;5;213m[mpeg @ 0x7ffff06d2360] [0m[48;5;0m[38;5;196mbuffer underflow st=0 bufi=461 size=1104
[0mpts:68400 pts_time:0.76 dts:64800 dts_time:0.72 duration:0 duration_time:0 stream_index:0
[48;5;0m[38;5;213m[mpeg @ 0x7ffff06d2360] [0m[48;5;0m[38;5;196mbuffer underflow st=0 bufi=1389 size=3669
[0m[48;5;0m[38;5;213m[mpeg @ 0x7ffff06d2360] [0m[48;5;0m[38;5;196mbuffer underflow st=0 bufi=3430 size=3669
[0mpts:72000 pts_time:0.8 dts:68400 dts_time:0.76 duration:0 duration_time:0 stream_index:0
pts:75600 pts_time:0.84 dts:72000 dts_time:0.8 duration:0 duration_time:0 stream_index:0
[48;5;0m[38;5;213m[mpeg @ 0x7ffff06d2360] [0m[48;5;0m[38;5;196mbuffer underflow st=0 bufi=563 size=838
[0mpts:79200 pts_time:0.88 dts:75600 dts_time:0.84 duration:0 duration_time:0 stream_index:0
[48;5;0m[38;5;213m[mpeg @ 0x7ffff06d2360] [0m[48;5;0m[38;5;196mbuffer underflow st=0 bufi=1757 size=2154
[0mpts:82800 pts_time:0.92 dts:79200 dts_time:0.88 duration:0 duration_time:0 stream_index:0
[48;5;0m[38;5;213m[mpeg @ 0x7ffff06d2360] [0m[48;5;0m[38;5;196mbuffer underflow st=0 bufi=1635 size=2736
[0mpts:86400 pts_time:0.96 dts:82800 dts_time:0.92 duration:0 duration_time:0 stream_index:0
[48;5;0m[38;5;213m[mpeg @ 0x7ffff06d2360] [0m[48;5;0m[38;5;196mbuffer underflow st=0 bufi=931 size=20981
[0m[48;5;0m[38;5;213m[mpeg @ 0x7ffff06d2360] [0m[48;5;0m[38;5;196mbuffer underflow st=0 bufi=2972 size=20981
[0m[48;5;0m[38;5;213m[mpeg @ 0x7ffff06d2360] [0m[48;5;0m[38;5;196mbuffer underflow st=0 bufi=5013 size=20981
[0m[48;5;0m[38;5;213m[mpeg @ 0x7ffff06d2360] [0m[48;5;0m[38;5;196mbuffer underflow st=0 bufi=7054 size=20981
[0m[48;5;0m[38;5;213m[mpeg @ 0x7ffff06d2360] [0m[48;5;0m[38;5;196mbuffer underflow st=0 bufi=9095 size=20981
[0m[48;5;0m[38;5;213m[mpeg @ 0x7ffff06d2360] [0m[48;5;0m[38;5;196mbuffer underflow st=0 bufi=11136 size=20981
[0m[48;5;0m[38;5;213m[mpeg @ 0x7ffff06d2360] [0m[48;5;0m[38;5;196mbuffer underflow st=0 bufi=13177 size=20981
[0m[48;5;0m[38;5;213m[mpeg @ 0x7ffff06d2360] [0m[48;5;0m[38;5;196mbuffer underflow st=0 bufi=15218 size=20981
[0m[48;5;0m[38;5;213m[mpeg @ 0x7ffff06d2360] [0m[48;5;0m[38;5;196mbuffer underflow st=0 bufi=17259 size=20981
[0m[48;5;0m[38;5;213m[mpeg @ 0x7ffff06d2360] [0m[48;5;0m[38;5;196mbuffer underflow st=0 bufi=19300 size=20981
[0mpts:90000 pts_time:1 dts:86400 dts_time:0.96 duration:0 duration_time:0 stream_index:0
[48;5;0m[38;5;213m[mpeg @ 0x7ffff06d2360] [0m[48;5;0m[38;5;196mbuffer underflow st=0 bufi=351 size=817
[0mpts:93600 pts_time:1.04 dts:90000 dts_time:1 duration:0 duration_time:0 stream_index:0
pts:97200 pts_time:1.08 dts:93600 dts_time:1.04 duration:0 duration_time:0 stream_index:0
pts:100800 pts_time:1.12 dts:97200 dts_time:1.08 duration:0 duration_time:0 stream_index:0
[48;5;0m[38;5;213m[mpeg @ 0x7ffff06d2360] [0m[48;5;0m[38;5;196mbuffer underflow st=0 bufi=49 size=1810
[0mpts:104400 pts_time:1.16 dts:100800 dts_time:1.12 duration:0 duration_time:0 stream_index:0
[48;5;0m[38;5;213m[mpeg @ 0x7ffff06d2360] [0m[48;5;0m[38;5;196mbuffer underflow st=0 bufi=271 size=1881
[0mpts:108000 pts_time:1.2 dts:104400 dts_time:1.16 duration:0 duration_time:0 stream_index:0
[48;5;0m[38;5;213m[mpeg @ 0x7ffff06d2360] [0m[48;5;0m[38;5;196mbuffer underflow st=0 bufi=422 size=3829
[0m[48;5;0m[38;5;213m[mpeg @ 0x7ffff06d2360] [0m[48;5;0m[38;5;196mbuffer underflow st=0 bufi=2463 size=3829
[0mpts:111600 pts_time:1.24 dts:108000 dts_time:1.2 duration:0 duration_time:0 stream_index:0
pts:115200 pts_time:1.28 dts:111600 dts_time:1.24 duration:0 duration_time:0 stream_index:0
[48;5;0m[38;5;213m[mpeg @ 0x7ffff06d2360] [0m[48;5;0m[38;5;196mbuffer underflow st=0 bufi=37 size=1203
[0mpts:118800 pts_time:1.32 dts:115200 dts_time:1.28 duration:0 duration_time:0 stream_index:0
pts:122400 pts_time:1.36 dts:118800 dts_time:1.32 duration:0 duration_time:0 stream_index:0
[48;5;0m[38;5;213m[mpeg @ 0x7ffff06d2360] [0m[48;5;0m[38;5;196mbuffer underflow st=0 bufi=227 size=1678
[0mpts:126000 pts_time:1.4 dts:122400 dts_time:1.36 duration:0 duration_time:0 stream_index:0
[48;5;0m[38;5;213m[mpeg @ 0x7ffff06d2360] [0m[48;5;0m[38;5;196mbuffer underflow st=0 bufi=581 size=819
[0mpts:129600 pts_time:1.44 dts:126000 dts_time:1.4 duration:0 duration_time:0 stream_index:0
[48;5;0m[38;5;213m[mpeg @ 0x7ffff06d2360] [0m[48;5;0m[38;5;196mbuffer underflow st=0 bufi=1794 size=24249
[0m[48;5;0m[38;5;213m[mpeg @ 0x7ffff06d2360] [0m[48;5;0m[38;5;196mbuffer underflow st=0 bufi=3835 size=24249
[0m[48;5;0m[38;5;213m[mpeg @ 0x7ffff06d2360] [0m[48;5;0m[38;5;196mbuffer underflow st=0 bufi=5876 size=24249
[0m[48;5;0m[38;5;213m[mpeg @ 0x7ffff06d2360] [0m[48;5;0m[38;5;196mbuffer underflow st=0 bufi=7917 size=24249
[0m[48;5;0m[38;5;213m[mpeg @ 0x7ffff06d2360] [0m[48;5;0m[38;5;196mbuffer underflow st=0 bufi=9958 size=24249
[0m[48;5;0m[38;5;213m[mpeg @ 0x7ffff06d2360] [0m[48;5;0m[38;5;196mbuffer underflow st=0 bufi=11999 size=24249
[0m[48;5;0m[38;5;213m[mpeg @ 0x7ffff06d2360] [0m[48;5;0m[38;5;196mbuffer underflow st=0 bufi=14040 size=24249
[0m[48;5;0m[38;5;213m[mpeg @ 0x7ffff06d2360] [0m[48;5;0m[38;5;196mbuffer underflow st=0 bufi=16081 size=24249
[0m[48;5;0m[38;5;213m[mpeg @ 0x7ffff06d2360] [0m[48;5;0m[38;5;196mbuffer underflow st=0 bufi=18122 size=24249
[0m[48;5;0m[38;5;213m[mpeg @ 0x7ffff06d2360] [0m[48;5;0m[38;5;196mbuffer underflow st=0 bufi=20163 size=24249
[0m[48;5;0m[38;5;213m[mpeg @ 0x7ffff06d2360] [0m[48;5;0m[38;5;196mbuffer underflow st=0 bufi=22204 size=24249
[0mpts:133200 pts_time:1.48 dts:129600 dts_time:1.44 duration:0 duration_time:0 stream_index:0
[48;5;0m[38;5;213m[mpeg @ 0x7ffff06d2360] [0m[48;5;0m[38;5;196mbuffer underflow st=0 bufi=24245 size=24249
[0mpts:136800 pts_time:1.52 dts:133200 dts_time:1.48 duration:0 duration_time:0 stream_index:0
pts:140400 pts_time:1.56 dts:136800 dts_time:1.52 duration:0 duration_time:0 stream_index:0
[48;5;0m[38;5;213m[mpeg @ 0x7ffff06d2360] [0m[48;5;0m[38;5;196mbuffer underflow st=0 bufi=1560 size=5416
[0m[48;5;0m[38;5;213m[mpeg @ 0x7ffff06d2360] [0m[48;5;0m[38;5;196mbuffer underflow st=0 bufi=3589 size=5416
[0mpts:144000 pts_time:1.6 dts:140400 dts_time:1.56 duration:0 duration_time:0 stream_index:0
pts:147600 pts_time:1.64 dts:144000 dts_time:1.6 duration:0 duration_time:0 stream_index:0
pts:151200 pts_time:1.68 dts:147600 dts_time:1.64 duration:0 duration_time:0 stream_index:0
[48;5;0m[38;5;213m[mpeg @ 0x7ffff06d2360] [0m[48;5;0m[38;5;196mbuffer underflow st=0 bufi=14 size=2532
[0m[48;5;0m[38;5;213m[mpeg @ 0x7ffff06d2360] [0m[48;5;0m[38;5;196mbuffer underflow st=0 bufi=2055 size=2532
[0mpts:154800 pts_time:1.72 dts:151200 dts_time:1.68 duration:0 duration_time:0 stream_index:0
pts:158400 pts_time:1.76 dts:154800 dts_time:1.72 duration:0 duration_time:0 stream_index:0
pts:162000 pts_time:1.8 dts:158400 dts_time:1.76 duration:0 duration_time:0 stream_index:0
[48;5;0m[38;5;213m[mpeg @ 0x7ffff06d2360] [0m[48;5;0m[38;5;196mbuffer underflow st=0 bufi=432 size=8254
[0m[48;5;0m[38;5;213m[mpeg @ 0x7ffff06d2360] [0m[48;5;0m[38;5;196mbuffer underflow st=0 bufi=2473 size=8254
[0m[48;5;0m[38;5;213m[mpeg @ 0x7ffff06d2360] [0m[48;5;0m[38;5;196mbuffer underflow st=0 bufi=4514 size=8254
[0m[48;5;0m[38;5;213m[mpeg @ 0x7ffff06d2360] [0m[48;5;0m[38;5;196mbuffer underflow st=0 bufi=6555 size=8254
[0mpts:165600 pts_time:1.84 dts:162000 dts_time:1.8 duration:0 duration_time:0 stream_index:0
[48;5;0m[38;5;213m[mpeg @ 0x7ffff06d2360] [0m[48;5;0m[38;5;196mbuffer underflow st=0 bufi=333 size=1221
[0mpts:169200 pts_time:1.88 dts:165600 dts_time:1.84 duration:0 duration_time:0 stream_index:0
pts:172800 pts_time:1.92 dts:169200 dts_time:1.88 duration:0 duration_time:0 stream_index:0
[48;5;0m[38;5;213m[mpeg @ 0x7ffff06d2360] [0m[48;5;0m[38;5;196mbuffer underflow st=0 bufi=676 size=23709
[0m[48;5;0m[38;5;213m[mpeg @ 0x7ffff06d2360] [0m[48;5;0m[38;5;196mbuffer underflow st=0 bufi=2717 size=23709
[0m[48;5;0m[38;5;213m[mpeg @ 0x7ffff06d2360] [0m[48;5;0m[38;5;196mbuffer underflow st=0 bufi=4758 size=23709
[0m[48;5;0m[38;5;213m[mpeg @ 0x7ffff06d2360] [0m[48;5;0m[38;5;196mbuffer underflow st=0 bufi=6799 size=23709
[0m[48;5;0m[38;5;213m[mpeg @ 0x7ffff06d2360] [0m[48;5;0m[38;5;196mbuffer underflow st=0 bufi=8840 size=23709
[0m[48;5;0m[38;5;213m[mpeg @ 0x7ffff06d2360] [0m[48;5;0m[38;5;196mbuffer underflow st=0 bufi=10881 size=23709
[0m[48;5;0m[38;5;213m[mpeg @ 0x7ffff06d2360] [0m[48;5;0m[38;5;196mbuffer underflow st=0 bufi=12922 size=23709
[0m[48;5;0m[38;5;213m[mpeg @ 0x7ffff06d2360] [0m[48;5;0m[38;5;196mbuffer underflow st=0 bufi=14963 size=23709
[0m[48;5;0m[38;5;213m[mpeg @ 0x7ffff06d2360] [0m[48;5;0m[38;5;196mbuffer underflow st=0 bufi=17004 size=23709
[0m[48;5;0m[38;5;213m[mpeg @ 0x7ffff06d2360] [0m[48;5;0m[38;5;196mbuffer underflow st=0 bufi=19045 size=23709
[0m[48;5;0m[38;5;213m[mpeg @ 0x7ffff06d2360] [0m[48;5;0m[38;5;196mbuffer underflow st=0 bufi=21086 size=23709
[0m[48;5;0m[38;5;213m[mpeg @ 0x7ffff06d2360] [0m[48;5;0m[38;5;196mbuffer underflow st=0 bufi=23127 size=23709
[0mpts:176400 pts_time:1.96 dts:172800 dts_time:1.92 duration:0 duration_time:0 stream_index:0
pts:180000 pts_time:2 dts:176400 dts_time:1.96 duration:0 duration_time:0 stream_index:0
[48;5;0m[38;5;213m[mpeg @ 0x7ffff06d2360] [0m[48;5;0m[38;5;196mbuffer underflow st=0 bufi=1104 size=1297
[0mpts:183600 pts_time:2.04 dts:180000 dts_time:2 duration:0 duration_time:0 stream_index:0
[48;5;0m[38;5;213m[mpeg @ 0x7ffff06d2360] [0m[48;5;0m[38;5;196mbuffer underflow st=0 bufi=1839 size=2105
[0mpts:187200 pts_time:2.08 dts:183600 dts_time:2.04 duration:0 duration_time:0 stream_index:0
pts:190800 pts_time:2.12 dts:187200 dts_time:2.08 duration:0 duration_time:0 stream_index:0
pts:194400 pts_time:2.16 dts:190800 dts_time:2.12 duration:0 duration_time:0 stream_index:0
[48;5;0m[38;5;213m[mpeg @ 0x7ffff06d2360] [0m[48;5;0m[38;5;196mbuffer underflow st=0 bufi=378 size=706
[0mpts:198000 pts_time:2.2 dts:194400 dts_time:2.16 duration:0 duration_time:0 stream_index:0
pts:201600 pts_time:2.24 dts:198000 dts_time:2.2 duration:0 duration_time:0 stream_index:0
pts:205200 pts_time:2.28 dts:201600 dts_time:2.24 duration:0 duration_time:0 stream_index:0
[48;5;0m[38;5;213m[mpeg @ 0x7ffff06d2360] [0m[48;5;0m[38;5;196mbuffer underflow st=0 bufi=583 size=4085
[0m[48;5;0m[38;5;213m[mpeg @ 0x7ffff06d2360] [0m[48;5;0m[38;5;196mbuffer underflow st=0 bufi=2624 size=4085
[0mpts:208800 pts_time:2.32 dts:205200 dts_time:2.28 duration:0 duration_time:0 stream_index:0
pts:212400 pts_time:2.36 dts:208800 dts_time:2.32 duration:0 duration_time:0 stream_index:0
pts:216000 pts_time:2.4 dts:212400 dts_time:2.36 duration:0 duration_time:0 stream_index:0
[48;5;0m[38;5;213m[mpeg @ 0x7ffff06d2360] [0m[48;5;0m[38;5;196mbuffer underflow st=0 bufi=345 size=32342
[0m[48;5;0m[38;5;213m[mpeg @ 0x7ffff06d2360] [0m[48;5;0m[38;5;196mbuffer underflow st=0 bufi=2386 size=32342
[0m[48;5;0m[38;5;213m[mpeg @ 0x7ffff06d2360] [0m[48;5;0m[38;5;196mbuffer underflow st=0 bufi=4427 size=32342
[0m[48;5;0m[38;5;213m[mpeg @ 0x7ffff06d2360] [0m[48;5;0m[38;5;196mbuffer underflow st=0 bufi=6468 size=32342
[0m[48;5;0m[38;5;213m[mpeg @ 0x7ffff06d2360] [0m[48;5;0m[38;5;196mbuffer underflow st=0 bufi=8509 size=32342
[0m[48;5;0m[38;5;213m[mpeg @ 0x7ffff06d2360] [0m[48;5;0m[38;5;196mbuffer underflow st=0 bufi=10550 size=32342
[0m[48;5;0m[38;5;213m[mpeg @ 0x7ffff06d2360] [0m[48;5;0m[38;5;196mbuffer underflow st=0 bufi=12591 size=32342
[0m[48;5;0m[38;5;213m[mpeg @ 0x7ffff06d2360] [0m[48;5;0m[38;5;196mbuffer underflow st=0 bufi=14632 size=32342
[0m[48;5;0m[38;5;213m[mpeg @ 0x7ffff06d2360] [0m[48;5;0m[38;5;196mbuffer underflow st=0 bufi=16673 size=32342
[0m[48;5;0m[38;5;213m[mpeg @ 0x7ffff06d2360] [0m[48;5;0m[38;5;196mbuffer underflow st=0 bufi=18714 size=32342
[0m[48;5;0m[38;5;213m[mpeg @ 0x7ffff06d2360] [0m[48;5;0m[38;5;196mbuffer underflow st=0 bufi=20755 size=32342
[0m[48;5;0m[38;5;213m[mpeg @ 0x7ffff06d2360] [0m[48;5;0m[38;5;196mbuffer underflow st=0 bufi=22796 size=32342
[0m[48;5;0m[38;5;213m[mpeg @ 0x7ffff06d2360] [0m[48;5;0m[38;5;196mbuffer underflow st=0 bufi=24837 size=32342
[0m[48;5;0m[38;5;213m[mpeg @ 0x7ffff06d2360] [0m[48;5;0m[38;5;196mbuffer underflow st=0 bufi=26878 size=32342
[0m[48;5;0m[38;5;213m[mpeg @ 0x7ffff06d2360] [0m[48;5;0m[38;5;196mbuffer underflow st=0 bufi=28919 size=32342
[0m[48;5;0m[38;5;213m[mpeg @ 0x7ffff06d2360] [0m[48;5;0m[38;5;196mbuffer underflow st=0 bufi=30960 size=32342
[0mpts:219600 pts_time:2.44 dts:216000 dts_time:2.4 duration:0 duration_time:0 stream_index:0
[48;5;0m[38;5;213m[mpeg @ 0x7ffff06d2360] [0m[48;5;0m[38;5;196mbuffer underflow st=0 bufi=650 size=2809
[0m[48;5;0m[38;5;213m[mpeg @ 0x7ffff06d2360] [0m[48;5;0m[38;5;196mbuffer underflow st=0 bufi=2691 size=2809
[0mpts:223200 pts_time:2.48 dts:219600 dts_time:2.44 duration:0 duration_time:0 stream_index:0
pts:226800 pts_time:2.52 dts:223200 dts_time:2.48 duration:0 duration_time:0 stream_index:0
pts:230400 pts_time:2.56 dts:226800 dts_time:2.52 duration:0 duration_time:0 stream_index:0
[48;5;0m[38;5;213m[mpeg @ 0x7ffff06d2360] [0m[48;5;0m[38;5;196mbuffer underflow st=0 bufi=1460 size=6731
[0m[48;5;0m[38;5;213m[mpeg @ 0x7ffff06d2360] [0m[48;5;0m[38;5;196mbuffer underflow st=0 bufi=3501 size=6731
[0m[48;5;0m[38;5;213m[mpeg @ 0x7ffff06d2360] [0m[48;5;0m[38;5;196mbuffer underflow st=0 bufi=5542 size=6731
[0mpts:234000 pts_time:2.6 dts:230400 dts_time:2.56 duration:0 duration_time:0 stream_index:0
[48;5;0m[38;5;213m[mpeg @ 0x7ffff06d2360] [0m[48;5;0m[38;5;196mbuffer underflow st=0 bufi=843 size=1031
[0mpts:237600 pts_time:2.64 dts:234000 dts_time:2.6 duration:0 duration_time:0 stream_index:0
pts:241200 pts_time:2.68 dts:237600 dts_time:2.64 duration:0 duration_time:0 stream_index:0
pts:244800 pts_time:2.72 dts:241200 dts_time:2.68 duration:0 duration_time:0 stream_index:0
[48;5;0m[38;5;213m[mpeg @ 0x7ffff06d2360] [0m[48;5;0m[38;5;196mbuffer underflow st=0 bufi=678 size=875
[0mpts:248400 pts_time:2.76 dts:244800 dts_time:2.72 duration:0 duration_time:0 stream_index:0
pts:252000 pts_time:2.8 dts:248400 dts_time:2.76 duration:0 duration_time:0 stream_index:0
[48;5;0m[38;5;213m[mpeg @ 0x7ffff06d2360] [0m[48;5;0m[38;5;196mbuffer underflow st=0 bufi=479 size=782
[0mpts:255600 pts_time:2.84 dts:252000 dts_time:2.8 duration:0 duration_time:0 stream_index:0
pts:259200 pts_time:2.88 dts:255600 dts_time:2.84 duration:0 duration_time:0 stream_index:0
[48;5;0m[38;5;213m[mpeg @ 0x7ffff06d2360] [0m[48;5;0m[38;5;196mbuffer underflow st=0 bufi=1230 size=32853
[0m[48;5;0m[38;5;213m[mpeg @ 0x7ffff06d2360] [0m[48;5;0m[38;5;196mbuffer underflow st=0 bufi=3271 size=32853
[0m[48;5;0m[38;5;213m[mpeg @ 0x7ffff06d2360] [0m[48;5;0m[38;5;196mbuffer underflow st=0 bufi=5312 size=32853
[0m[48;5;0m[38;5;213m[mpeg @ 0x7ffff06d2360] [0m[48;5;0m[38;5;196mbuffer underflow st=0 bufi=7341 size=32853
[0m[48;5;0m[38;5;213m[mpeg @ 0x7ffff06d2360] [0m[48;5;0m[38;5;196mbuffer underflow st=0 bufi=9382 size=32853
[0m[48;5;0m[38;5;213m[mpeg @ 0x7ffff06d2360] [0m[48;5;0m[38;5;196mbuffer underflow st=0 bufi=11423 size=32853
[0m[48;5;0m[38;5;213m[mpeg @ 0x7ffff06d2360] [0m[48;5;0m[38;5;196mbuffer underflow st=0 bufi=13464 size=32853
[0m[48;5;0m[38;5;213m[mpeg @ 0x7ffff06d2360] [0m[48;5;0m[38;5;196mbuffer underflow st=0 bufi=15505 size=32853
[0m[48;5;0m[38;5;213m[mpeg @ 0x7ffff06d2360] [0m[48;5;0m[38;5;196mbuffer underflow st=0 bufi=17546 size=32853
[0m[48;5;0m[38;5;213m[mpeg @ 0x7ffff06d2360] [0m[48;5;0m[38;5;196mbuffer underflow st=0 bufi=19587 size=32853
[0m[48;5;0m[38;5;213m[mpeg @ 0x7ffff06d2360] [0m[48;5;0m[38;5;196mbuffer underflow st=0 bufi=21628 size=32853
[0m[48;5;0m[38;5;213m[mpeg @ 0x7ffff06d2360] [0m[48;5;0m[38;5;196mbuffer underflow st=0 bufi=23669 size=32853
[0m[48;5;0m[38;5;213m[mpeg @ 0x7ffff06d2360] [0m[48;5;0m[38;5;196mbuffer underflow st=0 bufi=25710 size=32853
[0m[48;5;0m[38;5;213m[mpeg @ 0x7ffff06d2360] [0m[48;5;0m[38;5;196mbuffer underflow st=0 bufi=27751 size=32853
[0m[48;5;0m[38;5;213m[mpeg @ 0x7ffff06d2360] [0m[48;5;0m[38;5;196mbuffer underflow st=0 bufi=29792 size=32853
[0m[48;5;0m[38;5;213m[mpeg @ 0x7ffff06d2360] [0m[48;5;0m[38;5;196mbuffer underflow st=0 bufi=31833 size=32853
[0mpts:262800 pts_time:2.92 dts:259200 dts_time:2.88 duration:0 duration_time:0 stream_index:0
pts:266400 pts_time:2.96 dts:262800 dts_time:2.92 duration:0 duration_time:0 stream_index:0
[48;5;0m[38;5;213m[mpeg @ 0x7ffff06d2360] [0m[48;5;0m[38;5;196mbuffer underflow st=0 bufi=781 size=2783
[0mpts:270000 pts_time:3 dts:266400 dts_time:2.96 duration:0 duration_time:0 stream_index:0
[48;5;0m[38;5;213m[mpeg @ 0x7ffff06d2360] [0m[48;5;0m[38;5;196mbuffer underflow st=0 bufi=30 size=331
[0mpts:273600 pts_time:3.04 dts:270000 dts_time:3 duration:0 duration_time:0 stream_index:0
pts:277200 pts_time:3.08 dts:273600 dts_time:3.04 duration:0 duration_time:0 stream_index:0
pts:280800 pts_time:3.12 dts:277200 dts_time:3.08 duration:0 duration_time:0 stream_index:0
[48;5;0m[38;5;213m[mpeg @ 0x7ffff06d2360] [0m[48;5;0m[38;5;196mbuffer underflow st=0 bufi=1162 size=5736
[0m[48;5;0m[38;5;213m[mpeg @ 0x7ffff06d2360] [0m[48;5;0m[38;5;196mbuffer underflow st=0 bufi=3203 size=5736
[0m[48;5;0m[38;5;213m[mpeg @ 0x7ffff06d2360] [0m[48;5;0m[38;5;196mbuffer underflow st=0 bufi=5244 size=5736
[0mpts:284400 pts_time:3.16 dts:280800 dts_time:3.12 duration:0 duration_time:0 stream_index:0
pts:288000 pts_time:3.2 dts:284400 dts_time:3.16 duration:0 duration_time:0 stream_index:0
pts:291600 pts_time:3.24 dts:288000 dts_time:3.2 duration:0 duration_time:0 stream_index:0
pts:295200 pts_time:3.28 dts:291600 dts_time:3.24 duration:0 duration_time:0 stream_index:0
pts:298800 pts_time:3.32 dts:295200 dts_time:3.28 duration:0 duration_time:0 stream_index:0
[48;5;0m[38;5;213m[mpeg @ 0x7ffff06d2360] [0m[48;5;0m[38;5;196mbuffer underflow st=0 bufi=873 size=3603
[0m[48;5;0m[38;5;213m[mpeg @ 0x7ffff06d2360] [0m[48;5;0m[38;5;196mbuffer underflow st=0 bufi=2914 size=3603
[0mpts:302400 pts_time:3.36 dts:298800 dts_time:3.32 duration:0 duration_time:0 stream_index:0
[48;5;0m[38;5;213m[mpeg @ 0x7ffff06d2360] [0m[48;5;0m[38;5;196mbuffer underflow st=0 bufi=1343 size=35950
[0m[48;5;0m[38;5;213m[mpeg @ 0x7ffff06d2360] [0m[48;5;0m[38;5;196mbuffer underflow st=0 bufi=3384 size=35950
[0m[48;5;0m[38;5;213m[mpeg @ 0x7ffff06d2360] [0m[48;5;0m[38;5;196mbuffer underflow st=0 bufi=5425 size=35950
[0m[48;5;0m[38;5;213m[mpeg @ 0x7ffff06d2360] [0m[48;5;0m[38;5;196mbuffer underflow st=0 bufi=7466 size=35950
[0m[48;5;0m[38;5;213m[mpeg @ 0x7ffff06d2360] [0m[48;5;0m[38;5;196mbuffer underflow st=0 bufi=9507 size=35950
[0m[48;5;0m[38;5;213m[mpeg @ 0x7ffff06d2360] [0m[48;5;0m[38;5;196mbuffer underflow st=0 bufi=11548 size=35950
[0m[48;5;0m[38;5;213m[mpeg @ 0x7ffff06d2360] [0m[48;5;0m[38;5;196mbuffer underflow st=0 bufi=13589 size=35950
[0m[48;5;0m[38;5;213m[mpeg @ 0x7ffff06d2360] [0m[48;5;0m[38;5;196mbuffer underflow st=0 bufi=15630 size=35950
[0m[48;5;0m[38;5;213m[mpeg @ 0x7ffff06d2360] [0m[48;5;0m[38;5;196mbuffer underflow st=0 bufi=17671 size=35950
[0m[48;5;0m[38;5;213m[mpeg @ 0x7ffff06d2360] [0m[48;5;0m[38;5;196mbuffer underflow st=0 bufi=19712 size=35950
[0m[48;5;0m[38;5;213m[mpeg @ 0x7ffff06d2360] [0m[48;5;0m[38;5;196mbuffer underflow st=0 bufi=21753 size=35950
[0m[48;5;0m[38;5;213m[mpeg @ 0x7ffff06d2360] [0m[48;5;0m[38;5;196mbuffer underflow st=0 bufi=23794 size=35950
[0m[48;5;0m[38;5;213m[mpeg @ 0x7ffff06d2360] [0m[48;5;0m[38;5;196mbuffer underflow st=0 bufi=25835 size=35950
[0m[48;5;0m[38;5;213m[mpeg @ 0x7ffff06d2360] [0m[48;5;0m[38;5;196mbuffer underflow st=0 bufi=27876 size=35950
[0m[48;5;0m[38;5;213m[mpeg @ 0x7ffff06d2360] [0m[48;5;0m[38;5;196mbuffer underflow st=0 bufi=29917 size=35950
[0m[48;5;0m[38;5;213m[mpeg @ 0x7ffff06d2360] [0m[48;5;0m[38;5;196mbuffer underflow st=0 bufi=31958 size=35950
[0m[48;5;0m[38;5;213m[mpeg @ 0x7ffff06d2360] [0m[48;5;0m[38;5;196mbuffer underflow st=0 bufi=33999 size=35950
[0mpts:306000 pts_time:3.4 dts:302400 dts_time:3.36 duration:0 duration_time:0 stream_index:0
[48;5;0m[38;5;213m[mpeg @ 0x7ffff06d2360] [0m[48;5;0m[38;5;196mbuffer underflow st=0 bufi=81 size=1990
[0mpts:309600 pts_time:3.44 dts:306000 dts_time:3.4 duration:0 duration_time:0 stream_index:0
[48;5;0m[38;5;213m[mpeg @ 0x7ffff06d2360] [0m[48;5;0m[38;5;196mbuffer underflow st=0 bufi=123 size=440
[0mpts:313200 pts_time:3.48 dts:309600 dts_time:3.44 duration:0 duration_time:0 stream_index:0
pts:316800 pts_time:3.52 dts:313200 dts_time:3.48 duration:0 duration_time:0 stream_index:0
pts:320400 pts_time:3.56 dts:316800 dts_time:3.52 duration:0 duration_time:0 stream_index:0
pts:324000 pts_time:3.6 dts:320400 dts_time:3.56 duration:0 duration_time:0 stream_index:0
[48;5;0m[38;5;213m[mpeg @ 0x7ffff06d2360] [0m[48;5;0m[38;5;196mbuffer underflow st=0 bufi=602 size=615
[0mpts:327600 pts_time:3.64 dts:324000 dts_time:3.6 duration:0 duration_time:0 stream_index:0
[48;5;0m[38;5;213m[mpeg @ 0x7ffff06d2360] [0m[48;5;0m[38;5;196mbuffer underflow st=0 bufi=1552 size=1651
[0mpts:331200 pts_time:3.68 dts:327600 dts_time:3.64 duration:0 duration_time:0 stream_index:0
pts:334800 pts_time:3.72 dts:331200 dts_time:3.68 duration:0 duration_time:0 stream_index:0
pts:338400 pts_time:3.76 dts:334800 dts_time:3.72 duration:0 duration_time:0 stream_index:0
pts:342000 pts_time:3.8 dts:338400 dts_time:3.76 duration:0 duration_time:0 stream_index:0
pts:345600 pts_time:3.84 dts:342000 dts_time:3.8 duration:0 duration_time:0 stream_index:0
[48;5;0m[38;5;213m[mpeg @ 0x7ffff06d2360] [0m[48;5;0m[38;5;196mbuffer underflow st=0 bufi=15 size=33408
[0m[48;5;0m[38;5;213m[mpeg @ 0x7ffff06d2360] [0m[48;5;0m[38;5;196mbuffer underflow st=0 bufi=2056 size=33408
[0m[48;5;0m[38;5;213m[mpeg @ 0x7ffff06d2360] [0m[48;5;0m[38;5;196mbuffer underflow st=0 bufi=4097 size=33408
[0m[48;5;0m[38;5;213m[mpeg @ 0x7ffff06d2360] [0m[48;5;0m[38;5;196mbuffer underflow st=0 bufi=6138 size=33408
[0m[48;5;0m[38;5;213m[mpeg @ 0x7ffff06d2360] [0m[48;5;0m[38;5;196mbuffer underflow st=0 bufi=8179 size=33408
[0m[48;5;0m[38;5;213m[mpeg @ 0x7ffff06d2360] [0m[48;5;0m[38;5;196mbuffer underflow st=0 bufi=10220 size=33408
[0m[48;5;0m[38;5;213m[mpeg @ 0x7ffff06d2360] [0m[48;5;0m[38;5;196mbuffer underflow st=0 bufi=12261 size=33408
[0m[48;5;0m[38;5;213m[mpeg @ 0x7ffff06d2360] [0m[48;5;0m[38;5;196mbuffer underflow st=0 bufi=14302 size=33408
[0m[48;5;0m[38;5;213m[mpeg @ 0x7ffff06d2360] [0m[48;5;0m[38;5;196mbuffer underflow st=0 bufi=16343 size=33408
[0m[48;5;0m[38;5;213m[mpeg @ 0x7ffff06d2360] [0m[48;5;0m[38;5;196mbuffer underflow st=0 bufi=18384 size=33408
[0m[48;5;0m[38;5;213m[mpeg @ 0x7ffff06d2360] [0m[48;5;0m[38;5;196mbuffer underflow st=0 bufi=20425 size=33408
[0m[48;5;0m[38;5;213m[mpeg @ 0x7ffff06d2360] [0m[48;5;0m[38;5;196mbuffer underflow st=0 bufi=22454 size=33408
[0m[48;5;0m[38;5;213m[mpeg @ 0x7ffff06d2360] [0m[48;5;0m[38;5;196mbuffer underflow st=0 bufi=24495 size=33408
[0m[48;5;0m[38;5;213m[mpeg @ 0x7ffff06d2360] [0m[48;5;0m[38;5;196mbuffer underflow st=0 bufi=26536 size=33408
[0m[48;5;0m[38;5;213m[mpeg @ 0x7ffff06d2360] [0m[48;5;0m[38;5;196mbuffer underflow st=0 bufi=28577 size=33408
[0m[48;5;0m[38;5;213m[mpeg @ 0x7ffff06d2360] [0m[48;5;0m[38;5;196mbuffer underflow st=0 bufi=30618 size=33408
[0m[48;5;0m[38;5;213m[mpeg @ 0x7ffff06d2360] [0m[48;5;0m[38;5;196mbuffer underflow st=0 bufi=32659 size=33408
[0mpts:349200 pts_time:3.88 dts:345600 dts_time:3.84 duration:0 duration_time:0 stream_index:0
[48;5;0m[38;5;213m[mpeg @ 0x7ffff06d2360] [0m[48;5;0m[38;5;196mbuffer underflow st=0 bufi=1283 size=3010
[0mpts:352800 pts_time:3.92 dts:349200 dts_time:3.88 duration:0 duration_time:0 stream_index:0
pts:356400 pts_time:3.96 dts:352800 dts_time:3.92 duration:0 duration_time:0 stream_index:0
[48;5;0m[38;5;213m[mpeg @ 0x7ffff06d2360] [0m[48;5;0m[38;5;196mbuffer underflow st=0 bufi=226 size=297
[0mpts:360000 pts_time:4 dts:356400 dts_time:3.96 duration:0 duration_time:0 stream_index:0
pts:363600 pts_time:4.04 dts:360000 dts_time:4 duration:0 duration_time:0 stream_index:0
[48;5;0m[38;5;213m[mpeg @ 0x7ffff06d2360] [0m[48;5;0m[38;5;196mbuffer underflow st=0 bufi=1877 size=27204
[0m[48;5;0m[38;5;213m[mpeg @ 0x7ffff06d2360] [0m[48;5;0m[38;5;196mbuffer underflow st=0 bufi=3918 size=27204
[0m[48;5;0m[38;5;213m[mpeg @ 0x7ffff06d2360] [0m[48;5;0m[38;5;196mbuffer underflow st=0 bufi=5959 size=27204
[0m[48;5;0m[38;5;213m[mpeg @ 0x7ffff06d2360] [0m[48;5;0m[38;5;196mbuffer underflow st=0 bufi=8000 size=27204
[0m[48;5;0m[38;5;213m[mpeg @ 0x7ffff06d2360] [0m[48;5;0m[38;5;196mbuffer underflow st=0 bufi=10041 size=27204
[0m[48;5;0m[38;5;213m[mpeg @ 0x7ffff06d2360] [0m[48;5;0m[38;5;196mbuffer underflow st=0 bufi=12082 size=27204
[0m[48;5;0m[38;5;213m[mpeg @ 0x7ffff06d2360] [0m[48;5;0m[38;5;196mbuffer underflow st=0 bufi=14123 size=27204
[0m[48;5;0m[38;5;213m[mpeg @ 0x7ffff06d2360] [0m[48;5;0m[38;5;196mbuffer underflow st=0 bufi=16164 size=27204
[0m[48;5;0m[38;5;213m[mpeg @ 0x7ffff06d2360] [0m[48;5;0m[38;5;196mbuffer underflow st=0 bufi=18205 size=27204
[0m[48;5;0m[38;5;213m[mpeg @ 0x7ffff06d2360] [0m[48;5;0m[38;5;196mbuffer underflow st=0 bufi=20246 size=27204
[0m[48;5;0m[38;5;213m[mpeg @ 0x7ffff06d2360] [0m[48;5;0m[38;5;196mbuffer underflow st=0 bufi=22287 size=27204
[0m[48;5;0m[38;5;213m[mpeg @ 0x7ffff06d2360] [0m[48;5;0m[38;5;196mbuffer underflow st=0 bufi=24328 size=27204
[0m[48;5;0m[38;5;213m[mpeg @ 0x7ffff06d2360] [0m[48;5;0m[38;5;196mbuffer underflow st=0 bufi=26369 size=27204
[0mpts:367200 pts_time:4.08 dts:363600 dts_time:4.04 duration:0 duration_time:0 stream_index:0
[48;5;0m[38;5;213m[mpeg @ 0x7ffff06d2360] [0m[48;5;0m[38;5;196mbuffer underflow st=0 bufi=1197 size=6193
[0m[48;5;0m[38;5;213m[mpeg @ 0x7ffff06d2360] [0m[48;5;0m[38;5;196mbuffer underflow st=0 bufi=3238 size=6193
[0m[48;5;0m[38;5;213m[mpeg @ 0x7ffff06d2360] [0m[48;5;0m[38;5;196mbuffer underflow st=0 bufi=5279 size=6193
[0mpts:370800 pts_time:4.12 dts:367200 dts_time:4.08 duration:0 duration_time:0 stream_index:0
[48;5;0m[38;5;213m[mpeg @ 0x7ffff06d2360] [0m[48;5;0m[38;5;196mbuffer underflow st=0 bufi=1118 size=5036
[0m[48;5;0m[38;5;213m[mpeg @ 0x7ffff06d2360] [0m[48;5;0m[38;5;196mbuffer underflow st=0 bufi=3159 size=5036
[0mpts:374400 pts_time:4.16 dts:370800 dts_time:4.12 duration:0 duration_time:0 stream_index:0
[48;5;0m[38;5;213m[mpeg @ 0x7ffff06d2360] [0m[48;5;0m[38;5;196mbuffer underflow st=0 bufi=155 size=2988
[0m[48;5;0m[38;5;213m[mpeg @ 0x7ffff06d2360] [0m[48;5;0m[38;5;196mbuffer underflow st=0 bufi=2196 size=2988
[0mpts:378000 pts_time:4.2 dts:374400 dts_time:4.16 duration:0 duration_time:0 stream_index:0
[48;5;0m[38;5;213m[mpeg @ 0x7ffff06d2360] [0m[48;5;0m[38;5;196mbuffer underflow st=0 bufi=1240 size=3006
[0mpts:381600 pts_time:4.24 dts:378000 dts_time:4.2 duration:0 duration_time:0 stream_index:0
[48;5;0m[38;5;213m[mpeg @ 0x7ffff06d2360] [0m[48;5;0m[38;5;196mbuffer underflow st=0 bufi=266 size=3202
[0m[48;5;0m[38;5;213m[mpeg @ 0x7ffff06d2360] [0m[48;5;0m[38;5;196mbuffer underflow st=0 bufi=2307 size=3202
[0mpts:385200 pts_time:4.28 dts:381600 dts_time:4.24 duration:0 duration_time:0 stream_index:0
[48;5;0m[38;5;213m[mpeg @ 0x7ffff06d2360] [0m[48;5;0m[38;5;196mbuffer underflow st=0 bufi=1137 size=3254
[0m[48;5;0m[38;5;213m[mpeg @ 0x7ffff06d2360] [0m[48;5;0m[38;5;196mbuffer underflow st=0 bufi=3178 size=3254
[0mpts:388800 pts_time:4.32 dts:385200 dts_time:4.28 duration:0 duration_time:0 stream_index:0
[48;5;0m[38;5;213m[mpeg @ 0x7ffff06d2360] [0m[48;5;0m[38;5;196mbuffer underflow st=0 bufi=1956 size=13160
[0m[48;5;0m[38;5;213m[mpeg @ 0x7ffff06d2360] [0m[48;5;0m[38;5;196mbuffer underflow st=0 bufi=3997 size=13160
[0m[48;5;0m[38;5;213m[mpeg @ 0x7ffff06d2360] [0m[48;5;0m[38;5;196mbuffer underflow st=0 bufi=6038 size=13160
[0m[48;5;0m[38;5;213m[mpeg @ 0x7ffff06d2360] [0m[48;5;0m[38;5;196mbuffer underflow st=0 bufi=8079 size=13160
[0m[48;5;0m[38;5;213m[mpeg @ 0x7ffff06d2360] [0m[48;5;0m[38;5;196mbuffer underflow st=0 bufi=10120 size=13160
[0m[48;5;0m[38;5;213m[mpeg @ 0x7ffff06d2360] [0m[48;5;0m[38;5;196mbuffer underflow st=0 bufi=12161 size=13160
[0mpts:392400 pts_time:4.36 dts:388800 dts_time:4.32 duration:0 duration_time:0 stream_index:0
[48;5;0m[38;5;213m[mpeg @ 0x7ffff06d2360] [0m[48;5;0m[38;5;196mbuffer underflow st=0 bufi=1033 size=3310
[0m[48;5;0m[38;5;213m[mpeg @ 0x7ffff06d2360] [0m[48;5;0m[38;5;196mbuffer underflow st=0 bufi=3074 size=3310
[0mpts:396000 pts_time:4.4 dts:392400 dts_time:4.36 duration:0 duration_time:0 stream_index:0
[48;5;0m[38;5;213m[mpeg @ 0x7ffff06d2360] [0m[48;5;0m[38;5;196mbuffer underflow st=0 bufi=1796 size=2877
[0mpts:399600 pts_time:4.44 dts:396000 dts_time:4.4 duration:0 duration_time:0 stream_index:0
[48;5;0m[38;5;213m[mpeg @ 0x7ffff06d2360] [0m[48;5;0m[38;5;196mbuffer underflow st=0 bufi=951 size=2196
[0mpts:403200 pts_time:4.48 dts:399600 dts_time:4.44 duration:0 duration_time:0 stream_index:0
[48;5;0m[38;5;213m[mpeg @ 0x7ffff06d2360] [0m[48;5;0m[38;5;196mbuffer underflow st=0 bufi=787 size=1677
[0mpts:406800 pts_time:4.52 dts:403200 dts_time:4.48 duration:0 duration_time:0 stream_index:0
[48;5;0m[38;5;213m[mpeg @ 0x7ffff06d2360] [0m[48;5;0m[38;5;196mbuffer underflow st=0 bufi=1142 size=3270
[0m[48;5;0m[38;5;213m[mpeg @ 0x7ffff06d2360] [0m[48;5;0m[38;5;196mbuffer underflow st=0 bufi=3183 size=3270
[0mpts:410400 pts_time:4.56 dts:406800 dts_time:4.52 duration:0 duration_time:0 stream_index:0
[48;5;0m[38;5;213m[mpeg @ 0x7ffff06d2360] [0m[48;5;0m[38;5;196mbuffer underflow st=0 bufi=1945 size=2245
[0mpts:414000 pts_time:4.6 dts:410400 dts_time:4.56 duration:0 duration_time:0 stream_index:0
[48;5;0m[38;5;213m[mpeg @ 0x7ffff06d2360] [0m[48;5;0m[38;5;196mbuffer underflow st=0 bufi=1732 size=3035
[0mpts:417600 pts_time:4.64 dts:414000 dts_time:4.6 duration:0 duration_time:0 stream_index:0
[48;5;0m[38;5;213m[mpeg @ 0x7ffff06d2360] [0m[48;5;0m[38;5;196mbuffer underflow st=0 bufi=729 size=2974
[0m[48;5;0m[38;5;213m[mpeg @ 0x7ffff06d2360] [0m[48;5;0m[38;5;196mbuffer underflow st=0 bufi=2770 size=2974
[0mpts:421200 pts_time:4.68 dts:417600 dts_time:4.64 duration:0 duration_time:0 stream_index:0
[48;5;0m[38;5;213m[mpeg @ 0x7ffff06d2360] [0m[48;5;0m[38;5;196mbuffer underflow st=0 bufi=1828 size=2092
[0mpts:424800 pts_time:4.72 dts:421200 dts_time:4.68 duration:0 duration_time:0 stream_index:0
[48;5;0m[38;5;213m[mpeg @ 0x7ffff06d2360] [0m[48;5;0m[38;5;196mbuffer underflow st=0 bufi=1768 size=1809
[0mpts:428400 pts_time:4.76 dts:424800 dts_time:4.72 duration:0 duration_time:0 stream_index:0
[48;5;0m[38;5;213m[mpeg @ 0x7ffff06d2360] [0m[48;5;0m[38;5;196mbuffer underflow st=0 bufi=1964 size=2956
[0mpts:432000 pts_time:4.8 dts:428400 dts_time:4.76 duration:0 duration_time:0 stream_index:0
[48;5;0m[38;5;213m[mpeg @ 0x7ffff06d2360] [0m[48;5;0m[38;5;196mbuffer underflow st=0 bufi=1040 size=9474
[0m[48;5;0m[38;5;213m[mpeg @ 0x7ffff06d2360] [0m[48;5;0m[38;5;196mbuffer underflow st=0 bufi=3081 size=9474
[0m[48;5;0m[38;5;213m[mpeg @ 0x7ffff06d2360] [0m[48;5;0m[38;5;196mbuffer underflow st=0 bufi=5122 size=9474
[0m[48;5;0m[38;5;213m[mpeg @ 0x7ffff06d2360] [0m[48;5;0m[38;5;196mbuffer underflow st=0 bufi=7163 size=9474
[0m[48;5;0m[38;5;213m[mpeg @ 0x7ffff06d2360] [0m[48;5;0m[38;5;196mbuffer underflow st=0 bufi=9204 size=9474
[0mpts:435600 pts_time:4.84 dts:432000 dts_time:4.8 duration:0 duration_time:0 stream_index:0
pts:439200 pts_time:4.88 dts:435600 dts_time:4.84 duration:0 duration_time:0 stream_index:0
[48;5;0m[38;5;213m[mpeg @ 0x7ffff06d2360] [0m[48;5;0m[38;5;196mbuffer underflow st=0 bufi=67 size=2517
[0m[48;5;0m[38;5;213m[mpeg @ 0x7ffff06d2360] [0m[48;5;0m[38;5;196mbuffer underflow st=0 bufi=2108 size=2517
[0mpts:442800 pts_time:4.92 dts:439200 dts_time:4.88 duration:0 duration_time:0 stream_index:0
[48;5;0m[38;5;213m[mpeg @ 0x7ffff06d2360] [0m[48;5;0m[38;5;196mbuffer underflow st=0 bufi=1623 size=2778
[0mpts:446400 pts_time:4.96 dts:442800 dts_time:4.92 duration:0 duration_time:0 stream_index:0
[48;5;0m[38;5;213m[mpeg @ 0x7ffff06d2360] [0m[48;5;0m[38;5;196mbuffer underflow st=0 bufi=877 size=1555
[0mpts:450000 pts_time:5 dts:446400 dts_time:4.96 duration:0 duration_time:0 stream_index:0
[48;5;0m[38;5;213m[mpeg @ 0x7ffff06d2360] [0m[48;5;0m[38;5;196mbuffer underflow st=0 bufi=1354 size=2106
[0mpts:453600 pts_time:5.04 dts:450000 dts_time:5 duration:0 duration_time:0 stream_index:0
[48;5;0m[38;5;213m[mpeg @ 0x7ffff06d2360] [0m[48;5;0m[38;5;196mbuffer underflow st=0 bufi=1280 size=2763
[0mpts:457200 pts_time:5.08 dts:453600 dts_time:5.04 duration:0 duration_time:0 stream_index:0
[48;5;0m[38;5;213m[mpeg @ 0x7ffff06d2360] [0m[48;5;0m[38;5;196mbuffer underflow st=0 bufi=549 size=2754
[0m[48;5;0m[38;5;213m[mpeg @ 0x7ffff06d2360] [0m[48;5;0m[38;5;196mbuffer underflow st=0 bufi=2590 size=2754
[0mpts:460800 pts_time:5.12 dts:457200 dts_time:5.08 duration:0 duration_time:0 stream_index:0
pts:464400 pts_time:5.16 dts:460800 dts_time:5.12 duration:0 duration_time:0 stream_index:0
[48;5;0m[38;5;213m[mpeg @ 0x7ffff06d2360] [0m[48;5;0m[38;5;196mbuffer underflow st=0 bufi=331 size=2388
[0m[48;5;0m[38;5;213m[mpeg @ 0x7ffff06d2360] [0m[48;5;0m[38;5;196mbuffer underflow st=0 bufi=2372 size=2388
[0mpts:468000 pts_time:5.2 dts:464400 dts_time:5.16 duration:0 duration_time:0 stream_index:0
[48;5;0m[38;5;213m[mpeg @ 0x7ffff06d2360] [0m[48;5;0m[38;5;196mbuffer underflow st=0 bufi=2016 size=3210
[0mpts:471600 pts_time:5.24 dts:468000 dts_time:5.2 duration:0 duration_time:0 stream_index:0
[48;5;0m[38;5;213m[mpeg @ 0x7ffff06d2360] [0m[48;5;0m[38;5;196mbuffer underflow st=0 bufi=838 size=2034
[0mpts:475200 pts_time:5.28 dts:471600 dts_time:5.24 duration:0 duration_time:0 stream_index:0
[48;5;0m[38;5;213m[mpeg @ 0x7ffff06d2360] [0m[48;5;0m[38;5;196mbuffer underflow st=0 bufi=836 size=10575
[0m[48;5;0m[38;5;213m[mpeg @ 0x7ffff06d2360] [0m[48;5;0m[38;5;196mbuffer underflow st=0 bufi=2877 size=10575
[0m[48;5;0m[38;5;213m[mpeg @ 0x7ffff06d2360] [0m[48;5;0m[38;5;196mbuffer underflow st=0 bufi=4918 size=10575
[0m[48;5;0m[38;5;213m[mpeg @ 0x7ffff06d2360] [0m[48;5;0m[38;5;196mbuffer underflow st=0 bufi=6959 size=10575
[0m[48;5;0m[38;5;213m[mpeg @ 0x7ffff06d2360] [0m[48;5;0m[38;5;196mbuffer underflow st=0 bufi=9000 size=10575
[0mpts:478800 pts_time:5.32 dts:475200 dts_time:5.28 duration:0 duration_time:0 stream_index:0
[48;5;0m[38;5;213m[mpeg @ 0x7ffff06d2360] [0m[48;5;0m[38;5;196mbuffer underflow st=0 bufi=457 size=2888
[0m[48;5;0m[38;5;213m[mpeg @ 0x7ffff06d2360] [0m[48;5;0m[38;5;196mbuffer underflow st=0 bufi=2498 size=2888
[0mpts:482400 pts_time:5.36 dts:478800 dts_time:5.32 duration:0 duration_time:0 stream_index:0
[48;5;0m[38;5;213m[mpeg @ 0x7ffff06d2360] [0m[48;5;0m[38;5;196mbuffer underflow st=0 bufi=1642 size=2480
[0mpts:486000 pts_time:5.4 dts:482400 dts_time:5.36 duration:0 duration_time:0 stream_index:0
[48;5;0m[38;5;213m[mpeg @ 0x7ffff06d2360] [0m[48;5;0m[38;5;196mbuffer underflow st=0 bufi=1194 size=3244
[0m[48;5;0m[38;5;213m[mpeg @ 0x7ffff06d2360] [0m[48;5;0m[38;5;196mbuffer underflow st=0 bufi=3235 size=3244
[0mpts:489600 pts_time:5.44 dts:486000 dts_time:5.4 duration:0 duration_time:0 stream_index:0
pts:493200 pts_time:5.48 dts:489600 dts_time:5.44 duration:0 duration_time:0 stream_index:0
[48;5;0m[38;5;213m[mpeg @ 0x7ffff06d2360] [0m[48;5;0m[38;5;196mbuffer underflow st=0 bufi=323 size=2088
[0mpts:496800 pts_time:5.52 dts:493200 dts_time:5.48 duration:0 duration_time:0 stream_index:0
[48;5;0m[38;5;213m[mpeg @ 0x7ffff06d2360] [0m[48;5;0m[38;5;196mbuffer underflow st=0 bufi=267 size=3454
[0m[48;5;0m[38;5;213m[mpeg @ 0x7ffff06d2360] [0m[48;5;0m[38;5;196mbuffer underflow st=0 bufi=2308 size=3454
[0mpts:500400 pts_time:5.56 dts:496800 dts_time:5.52 duration:0 duration_time:0 stream_index:0
[48;5;0m[38;5;213m[mpeg @ 0x7ffff06d2360] [0m[48;5;0m[38;5;196mbuffer underflow st=0 bufi=886 size=2687
[0mpts:504000 pts_time:5.6 dts:500400 dts_time:5.56 duration:0 duration_time:0 stream_index:0
[48;5;0m[38;5;213m[mpeg @ 0x7ffff06d2360] [0m[48;5;0m[38;5;196mbuffer underflow st=0 bufi=231 size=2225
[0mpts:507600 pts_time:5.64 dts:504000 dts_time:5.6 duration:0 duration_time:0 stream_index:0
[48;5;0m[38;5;213m[mpeg @ 0x7ffff06d2360] [0m[48;5;0m[38;5;196mbuffer underflow st=0 bufi=38 size=2547
[0m[48;5;0m[38;5;213m[mpeg @ 0x7ffff06d2360] [0m[48;5;0m[38;5;196mbuffer underflow st=0 bufi=2079 size=2547
[0mpts:511200 pts_time:5.68 dts:507600 dts_time:5.64 duration:0 duration_time:0 stream_index:0
pts:514800 pts_time:5.72 dts:511200 dts_time:5.68 duration:0 duration_time:0 stream_index:0
[48;5;0m[38;5;213m[mpeg @ 0x7ffff06d2360] [0m[48;5;0m[38;5;196mbuffer underflow st=0 bufi=26 size=2599
[0m[48;5;0m[38;5;213m[mpeg @ 0x7ffff06d2360] [0m[48;5;0m[38;5;196mbuffer underflow st=0 bufi=2067 size=2599
[0mpts:518400 pts_time:5.76 dts:514800 dts_time:5.72 duration:0 duration_time:0 stream_index:0
[48;5;0m[38;5;213m[mpeg @ 0x7ffff06d2360] [0m[48;5;0m[38;5;196mbuffer underflow st=0 bufi=1500 size=9166
[0m[48;5;0m[38;5;213m[mpeg @ 0x7ffff06d2360] [0m[48;5;0m[38;5;196mbuffer underflow st=0 bufi=3541 size=9166
[0m[48;5;0m[38;5;213m[mpeg @ 0x7ffff06d2360] [0m[48;5;0m[38;5;196mbuffer underflow st=0 bufi=5582 size=9166
[0m[48;5;0m[38;5;213m[mpeg @ 0x7ffff06d2360] [0m[48;5;0m[38;5;196mbuffer underflow st=0 bufi=7623 size=9166
[0mpts:522000 pts_time:5.8 dts:518400 dts_time:5.76 duration:0 duration_time:0 stream_index:0
[48;5;0m[38;5;213m[mpeg @ 0x7ffff06d2360] [0m[48;5;0m[38;5;196mbuffer underflow st=0 bufi=489 size=1708
[0mpts:525600 pts_time:5.84 dts:522000 dts_time:5.8 duration:0 duration_time:0 stream_index:0
[48;5;0m[38;5;213m[mpeg @ 0x7ffff06d2360] [0m[48;5;0m[38;5;196mbuffer underflow st=0 bufi=813 size=2043
[0mpts:529200 pts_time:5.88 dts:525600 dts_time:5.84 duration:0 duration_time:0 stream_index:0
[48;5;0m[38;5;213m[mpeg @ 0x7ffff06d2360] [0m[48;5;0m[38;5;196mbuffer underflow st=0 bufi=802 size=3166
[0m[48;5;0m[38;5;213m[mpeg @ 0x7ffff06d2360] [0m[48;5;0m[38;5;196mbuffer underflow st=0 bufi=2843 size=3166
[0mpts:532800 pts_time:5.92 dts:529200 dts_time:5.88 duration:0 duration_time:0 stream_index:0
pts:536400 pts_time:5.96 dts:532800 dts_time:5.92 duration:0 duration_time:0 stream_index:0
[48;5;0m[38;5;213m[mpeg @ 0x7ffff06d2360] [0m[48;5;0m[38;5;196mbuffer underflow st=0 bufi=98 size=1941
[0mpts:540000 pts_time:6 dts:536400 dts_time:5.96 duration:0 duration_time:0 stream_index:0
[48;5;0m[38;5;213m[mpeg @ 0x7ffff06d2360] [0m[48;5;0m[38;5;196mbuffer underflow st=0 bufi=189 size=2722
[0m[48;5;0m[38;5;213m[mpeg @ 0x7ffff06d2360] [0m[48;5;0m[38;5;196mbuffer underflow st=0 bufi=2230 size=2722
[0mpts:543600 pts_time:6.04 dts:540000 dts_time:6 duration:0 duration_time:0 stream_index:0
[48;5;0m[38;5;213m[mpeg @ 0x7ffff06d2360] [0m[48;5;0m[38;5;196mbuffer underflow st=0 bufi=1540 size=2994
[0mpts:547200 pts_time:6.08 dts:543600 dts_time:6.04 duration:0 duration_time:0 stream_index:0
[48;5;0m[38;5;213m[mpeg @ 0x7ffff06d2360] [0m[48;5;0m[38;5;196mbuffer underflow st=0 bufi=578 size=1636
[0mpts:550800 pts_time:6.12 dts:547200 dts_time:6.08 duration:0 duration_time:0 stream_index:0
[48;5;0m[38;5;213m[mpeg @ 0x7ffff06d2360] [0m[48;5;0m[38;5;196mbuffer underflow st=0 bufi=974 size=1951
[0mpts:554400 pts_time:6.16 dts:550800 dts_time:6.12 duration:0 duration_time:0 stream_index:0
[48;5;0m[38;5;213m[mpeg @ 0x7ffff06d2360] [0m[48;5;0m[38;5;196mbuffer underflow st=0 bufi=1055 size=2606
[0mpts:558000 pts_time:6.2 dts:554400 dts_time:6.16 duration:0 duration_time:0 stream_index:0
[48;5;0m[38;5;213m[mpeg @ 0x7ffff06d2360] [0m[48;5;0m[38;5;196mbuffer underflow st=0 bufi=469 size=1843
[0mpts:561600 pts_time:6.24 dts:558000 dts_time:6.2 duration:0 duration_time:0 stream_index:0
[48;5;0m[38;5;213m[mpeg @ 0x7ffff06d2360] [0m[48;5;0m[38;5;196mbuffer underflow st=0 bufi=658 size=10190
[0m[48;5;0m[38;5;213m[mpeg @ 0x7ffff06d2360] [0m[48;5;0m[38;5;196mbuffer underflow st=0 bufi=2699 size=10190
[0m[48;5;0m[38;5;213m[mpeg @ 0x7ffff06d2360] [0m[48;5;0m[38;5;196mbuffer underflow st=0 bufi=4740 size=10190
[0m[48;5;0m[38;5;213m[mpeg @ 0x7ffff06d2360] [0m[48;5;0m[38;5;196mbuffer underflow st=0 bufi=6781 size=10190
[0m[48;5;0m[38;5;213m[mpeg @ 0x7ffff06d2360] [0m[48;5;0m[38;5;196mbuffer underflow st=0 bufi=8822 size=10190
[0mpts:565200 pts_time:6.28 dts:561600 dts_time:6.24 duration:0 duration_time:0 stream_index:0
[48;5;0m[38;5;213m[mpeg @ 0x7ffff06d2360] [0m[48;5;0m[38;5;196mbuffer underflow st=0 bufi=664 size=2348
[0mpts:568800 pts_time:6.32 dts:565200 dts_time:6.28 duration:0 duration_time:0 stream_index:0
[48;5;0m[38;5;213m[mpeg @ 0x7ffff06d2360] [0m[48;5;0m[38;5;196mbuffer underflow st=0 bufi=348 size=2198
[0mpts:572400 pts_time:6.36 dts:568800 dts_time:6.32 duration:0 duration_time:0 stream_index:0
[48;5;0m[38;5;213m[mpeg @ 0x7ffff06d2360] [0m[48;5;0m[38;5;196mbuffer underflow st=0 bufi=182 size=2851
[0m[48;5;0m[38;5;213m[mpeg @ 0x7ffff06d2360] [0m[48;5;0m[38;5;196mbuffer underflow st=0 bufi=2223 size=2851
[0mpts:576000 pts_time:6.4 dts:572400 dts_time:6.36 duration:0 duration_time:0 stream_index:0
[48;5;0m[38;5;213m[mpeg @ 0x7ffff06d2360] [0m[48;5;0m[38;5;196mbuffer underflow st=0 bufi=1404 size=1540
[0mpts:579600 pts_time:6.44 dts:576000 dts_time:6.4 duration:0 duration_time:0 stream_index:0
pts:583200 pts_time:6.48 dts:579600 dts_time:6.44 duration:0 duration_time:0 stream_index:0
[48;5;0m[38;5;213m[mpeg @ 0x7ffff06d2360] [0m[48;5;0m[38;5;196mbuffer underflow st=0 bufi=143 size=3012
[0m[48;5;0m[38;5;213m[mpeg @ 0x7ffff06d2360] [0m[48;5;0m[38;5;196mbuffer underflow st=0 bufi=2184 size=3012
[0mpts:586800 pts_time:6.52 dts:583200 dts_time:6.48 duration:0 duration_time:0 stream_index:0
[48;5;0m[38;5;213m[mpeg @ 0x7ffff06d2360] [0m[48;5;0m[38;5;196mbuffer underflow st=0 bufi=1204 size=2676
[0mpts:590400 pts_time:6.56 dts:586800 dts_time:6.52 duration:0 duration_time:0 stream_index:0
[48;5;0m[38;5;213m[mpeg @ 0x7ffff06d2360] [0m[48;5;0m[38;5;196mbuffer underflow st=0 bufi=560 size=1582
[0mpts:594000 pts_time:6.6 dts:590400 dts_time:6.56 duration:0 duration_time:0 stream_index:0
[48;5;0m[38;5;213m[mpeg @ 0x7ffff06d2360] [0m[48;5;0m[38;5;196mbuffer underflow st=0 bufi=1010 size=1961
[0mpts:597600 pts_time:6.64 dts:594000 dts_time:6.6 duration:0 duration_time:0 stream_index:0
[48;5;0m[38;5;213m[mpeg @ 0x7ffff06d2360] [0m[48;5;0m[38;5;196mbuffer underflow st=0 bufi=1081 size=1940
[0mpts:601200 pts_time:6.68 dts:597600 dts_time:6.64 duration:0 duration_time:0 stream_index:0
[48;5;0m[38;5;213m[mpeg @ 0x7ffff06d2360] [0m[48;5;0m[38;5;196mbuffer underflow st=0 bufi=1173 size=2641
[0mpts:604800 pts_time:6.72 dts:601200 dts_time:6.68 duration:0 duration_time:0 stream_index:0
[48;5;0m[38;5;213m[mpeg @ 0x7ffff06d2360] [0m[48;5;0m[38;5;196mbuffer underflow st=0 bufi=564 size=9162
[0m[48;5;0m[38;5;213m[mpeg @ 0x7ffff06d2360] [0m[48;5;0m[38;5;196mbuffer underflow st=0 bufi=2605 size=9162
[0m[48;5;0m[38;5;213m[mpeg @ 0x7ffff06d2360] [0m[48;5;0m[38;5;196mbuffer underflow st=0 bufi=4646 size=9162
[0m[48;5;0m[38;5;213m[mpeg @ 0x7ffff06d2360] [0m[48;5;0m[38;5;196mbuffer underflow st=0 bufi=6687 size=9162
[0m[48;5;0m[38;5;213m[mpeg @ 0x7ffff06d2360] [0m[48;5;0m[38;5;196mbuffer underflow st=0 bufi=8728 size=9162
[0mpts:608400 pts_time:6.76 dts:604800 dts_time:6.72 duration:0 duration_time:0 stream_index:0
[48;5;0m[38;5;213m[mpeg @ 0x7ffff06d2360] [0m[48;5;0m[38;5;196mbuffer underflow st=0 bufi=1598 size=1677
[0mpts:612000 pts_time:6.8 dts:608400 dts_time:6.76 duration:0 duration_time:0 stream_index:0
[48;5;0m[38;5;213m[mpeg @ 0x7ffff06d2360] [0m[48;5;0m[38;5;196mbuffer underflow st=0 bufi=1953 size=2015
[0mpts:615600 pts_time:6.84 dts:612000 dts_time:6.8 duration:0 duration_time:0 stream_index:0
[48;5;0m[38;5;213m[mpeg @ 0x7ffff06d2360] [0m[48;5;0m[38;5;196mbuffer underflow st=0 bufi=1970 size=3146
[0mpts:619200 pts_time:6.88 dts:615600 dts_time:6.84 duration:0 duration_time:0 stream_index:0
[48;5;0m[38;5;213m[mpeg @ 0x7ffff06d2360] [0m[48;5;0m[38;5;196mbuffer underflow st=0 bufi=856 size=1532
[0mpts:622800 pts_time:6.92 dts:619200 dts_time:6.88 duration:0 duration_time:0 stream_index:0
[48;5;0m[38;5;213m[mpeg @ 0x7ffff06d2360] [0m[48;5;0m[38;5;196mbuffer underflow st=0 bufi=1356 size=1969
[0mpts:626400 pts_time:6.96 dts:622800 dts_time:6.92 duration:0 duration_time:0 stream_index:0
[48;5;0m[38;5;213m[mpeg @ 0x7ffff06d2360] [0m[48;5;0m[38;5;196mbuffer underflow st=0 bufi=1419 size=2704
[0mpts:630000 pts_time:7 dts:626400 dts_time:6.96 duration:0 duration_time:0 stream_index:0
[48;5;0m[38;5;213m[mpeg @ 0x7ffff06d2360] [0m[48;5;0m[38;5;196mbuffer underflow st=0 bufi=747 size=2710
[0mpts:633600 pts_time:7.04 dts:630000 dts_time:7 duration:0 duration_time:0 stream_index:0
[48;5;0m[38;5;213m[mpeg @ 0x7ffff06d2360] [0m[48;5;0m[38;5;196mbuffer underflow st=0 bufi=69 size=1518
[0mpts:637200 pts_time:7.08 dts:633600 dts_time:7.04 duration:0 duration_time:0 stream_index:0
[48;5;0m[38;5;213m[mpeg @ 0x7ffff06d2360] [0m[48;5;0m[38;5;196mbuffer underflow st=0 bufi=583 size=2101
[0mpts:640800 pts_time:7.12 dts:637200 dts_time:7.08 duration:0 duration_time:0 stream_index:0
[48;5;0m[38;5;213m[mpeg @ 0x7ffff06d2360] [0m[48;5;0m[38;5;196mbuffer underflow st=0 bufi=514 size=2704
[0m[48;5;0m[38;5;213m[mpeg @ 0x7ffff06d2360] [0m[48;5;0m[38;5;196mbuffer underflow st=0 bufi=2555 size=2704
[0mpts:644400 pts_time:7.16 dts:640800 dts_time:7.12 duration:0 duration_time:0 stream_index:0
pts:648000 pts_time:7.2 dts:644400 dts_time:7.16 duration:0 duration_time:0 stream_index:0
[48;5;0m[38;5;213m[mpeg @ 0x7ffff06d2360] [0m[48;5;0m[38;5;196mbuffer underflow st=0 bufi=150 size=10565
[0m[48;5;0m[38;5;213m[mpeg @ 0x7ffff06d2360] [0m[48;5;0m[38;5;196mbuffer underflow st=0 bufi=2191 size=10565
[0m[48;5;0m[38;5;213m[mpeg @ 0x7ffff06d2360] [0m[48;5;0m[38;5;196mbuffer underflow st=0 bufi=4232 size=10565
[0m[48;5;0m[38;5;213m[mpeg @ 0x7ffff06d2360] [0m[48;5;0m[38;5;196mbuffer underflow st=0 bufi=6273 size=10565
[0m[48;5;0m[38;5;213m[mpeg @ 0x7ffff06d2360] [0m[48;5;0m[38;5;196mbuffer underflow st=0 bufi=8314 size=10565
[0m[48;5;0m[38;5;213m[mpeg @ 0x7ffff06d2360] [0m[48;5;0m[38;5;196mbuffer underflow st=0 bufi=10355 size=10565
[0mpts:651600 pts_time:7.24 dts:648000 dts_time:7.2 duration:0 duration_time:0 stream_index:0
[48;5;0m[38;5;213m[mpeg @ 0x7ffff06d2360] [0m[48;5;0m[38;5;196mbuffer underflow st=0 bufi=1822 size=2924
[0mpts:655200 pts_time:7.28 dts:651600 dts_time:7.24 duration:0 duration_time:0 stream_index:0
[48;5;0m[38;5;213m[mpeg @ 0x7ffff06d2360] [0m[48;5;0m[38;5;196mbuffer underflow st=0 bufi=930 size=2502
[0mpts:658800 pts_time:7.32 dts:655200 dts_time:7.28 duration:0 duration_time:0 stream_index:0
[48;5;0m[38;5;213m[mpeg @ 0x7ffff06d2360] [0m[48;5;0m[38;5;196mbuffer underflow st=0 bufi=460 size=3301
[0m[48;5;0m[38;5;213m[mpeg @ 0x7ffff06d2360] [0m[48;5;0m[38;5;196mbuffer underflow st=0 bufi=2501 size=3301
[0mpts:662400 pts_time:7.36 dts:658800 dts_time:7.32 duration:0 duration_time:0 stream_index:0
[48;5;0m[38;5;213m[mpeg @ 0x7ffff06d2360] [0m[48;5;0m[38;5;196mbuffer underflow st=0 bufi=1232 size=1764
[0mpts:666000 pts_time:7.4 dts:662400 dts_time:7.36 duration:0 duration_time:0 stream_index:0
[48;5;0m[38;5;213m[mpeg @ 0x7ffff06d2360] [0m[48;5;0m[38;5;196mbuffer underflow st=0 bufi=1500 size=2015
[0mpts:669600 pts_time:7.44 dts:666000 dts_time:7.4 duration:0 duration_time:0 stream_index:0
[48;5;0m[38;5;213m[mpeg @ 0x7ffff06d2360] [0m[48;5;0m[38;5;196mbuffer underflow st=0 bufi=1517 size=3379
[0mpts:673200 pts_time:7.48 dts:669600 dts_time:7.44 duration:0 duration_time:0 stream_index:0
[48;5;0m[38;5;213m[mpeg @ 0x7ffff06d2360] [0m[48;5;0m[38;5;196mbuffer underflow st=0 bufi=170 size=2993
[0m[48;5;0m[38;5;213m[mpeg @ 0x7ffff06d2360] [0m[48;5;0m[38;5;196mbuffer underflow st=0 bufi=2211 size=2993
[0mpts:676800 pts_time:7.52 dts:673200 dts_time:7.48 duration:0 duration_time:0 stream_index:0
[48;5;0m[38;5;213m[mpeg @ 0x7ffff06d2360] [0m[48;5;0m[38;5;196mbuffer underflow st=0 bufi=1250 size=2095
[0mpts:680400 pts_time:7.56 dts:676800 dts_time:7.52 duration:0 duration_time:0 stream_index:0
[48;5;0m[38;5;213m[mpeg @ 0x7ffff06d2360] [0m[48;5;0m[38;5;196mbuffer underflow st=0 bufi=1187 size=2714
[0mpts:684000 pts_time:7.6 dts:680400 dts_time:7.56 duration:0 duration_time:0 stream_index:0
[48;5;0m[38;5;213m[mpeg @ 0x7ffff06d2360] [0m[48;5;0m[38;5;196mbuffer underflow st=0 bufi=505 size=2757
[0m[48;5;0m[38;5;213m[mpeg @ 0x7ffff06d2360] [0m[48;5;0m[38;5;196mbuffer underflow st=0 bufi=2534 size=2757
[0mpts:687600 pts_time:7.64 dts:684000 dts_time:7.6 duration:0 duration_time:0 stream_index:0
[48;5;0m[38;5;213m[mpeg @ 0x7ffff06d2360] [0m[48;5;0m[38;5;196mbuffer underflow st=0 bufi=1809 size=2611
[0mpts:691200 pts_time:7.68 dts:687600 dts_time:7.64 duration:0 duration_time:0 stream_index:0
[48;5;0m[38;5;213m[mpeg @ 0x7ffff06d2360] [0m[48;5;0m[38;5;196mbuffer underflow st=0 bufi=1230 size=9231
[0m[48;5;0m[38;5;213m[mpeg @ 0x7ffff06d2360] [0m[48;5;0m[38;5;196mbuffer underflow st=0 bufi=3271 size=9231
[0m[48;5;0m[38;5;213m[mpeg @ 0x7ffff06d2360] [0m[48;5;0m[38;5;196mbuffer underflow st=0 bufi=5312 size=9231
[0m[48;5;0m[38;5;213m[mpeg @ 0x7ffff06d2360] [0m[48;5;0m[38;5;196mbuffer underflow st=0 bufi=7353 size=9231
[0mpts:694800 pts_time:7.72 dts:691200 dts_time:7.68 duration:0 duration_time:0 stream_index:0
[48;5;0m[38;5;213m[mpeg @ 0x7ffff06d2360] [0m[48;5;0m[38;5;196mbuffer underflow st=0 bufi=154 size=1256
[0mpts:698400 pts_time:7.76 dts:694800 dts_time:7.72 duration:0 duration_time:0 stream_index:0
[48;5;0m[38;5;213m[mpeg @ 0x7ffff06d2360] [0m[48;5;0m[38;5;196mbuffer underflow st=0 bufi=930 size=1546
[0mpts:702000 pts_time:7.8 dts:698400 dts_time:7.76 duration:0 duration_time:0 stream_index:0
[48;5;0m[38;5;213m[mpeg @ 0x7ffff06d2360] [0m[48;5;0m[38;5;196mbuffer underflow st=0 bufi=1416 size=2748
[0mpts:705600 pts_time:7.84 dts:702000 dts_time:7.8 duration:0 duration_time:0 stream_index:0
[48;5;0m[38;5;213m[mpeg @ 0x7ffff06d2360] [0m[48;5;0m[38;5;196mbuffer underflow st=0 bufi=700 size=1355
[0mpts:709200 pts_time:7.88 dts:705600 dts_time:7.84 duration:0 duration_time:0 stream_index:0
[48;5;0m[38;5;213m[mpeg @ 0x7ffff06d2360] [0m[48;5;0m[38;5;196mbuffer underflow st=0 bufi=1377 size=1519
[0mpts:712800 pts_time:7.92 dts:709200 dts_time:7.88 duration:0 duration_time:0 stream_index:0
[48;5;0m[38;5;213m[mpeg @ 0x7ffff06d2360] [0m[48;5;0m[38;5;196mbuffer underflow st=0 bufi=1890 size=2458
[0mpts:716400 pts_time:7.96 dts:712800 dts_time:7.92 duration:0 duration_time:0 stream_index:0
[48;5;0m[38;5;213m[mpeg @ 0x7ffff06d2360] [0m[48;5;0m[38;5;196mbuffer underflow st=0 bufi=1464 size=2321
[0mpts:720000 pts_time:8 dts:716400 dts_time:7.96 duration:0 duration_time:0 stream_index:0
[48;5;0m[38;5;213m[mpeg @ 0x7ffff06d2360] [0m[48;5;0m[38;5;196mbuffer underflow st=0 bufi=1175 size=1323
[0mpts:723600 pts_time:8.04 dts:720000 dts_time:8 duration:0 duration_time:0 stream_index:0
[48;5;0m[38;5;213m[mpeg @ 0x7ffff06d2360] [0m[48;5;0m[38;5;196mbuffer underflow st=0 bufi=1884 size=2267
[0mpts:727200 pts_time:8.08 dts:723600 dts_time:8.04 duration:0 duration_time:0 stream_index:0
[48;5;0m[38;5;213m[mpeg @ 0x7ffff06d2360] [0m[48;5;0m[38;5;196mbuffer underflow st=0 bufi=1649 size=2690
[0mpts:730800 pts_time:8.12 dts:727200 dts_time:8.08 duration:0 duration_time:0 stream_index:0
[48;5;0m[38;5;213m[mpeg @ 0x7ffff06d2360] [0m[48;5;0m[38;5;196mbuffer underflow st=0 bufi=991 size=2006
[0mpts:734400 pts_time:8.16 dts:730800 dts_time:8.12 duration:0 duration_time:0 stream_index:0
[48;5;0m[38;5;213m[mpeg @ 0x7ffff06d2360] [0m[48;5;0m[38;5;196mbuffer underflow st=0 bufi=1017 size=10277
[0m[48;5;0m[38;5;213m[mpeg @ 0x7ffff06d2360] [0m[48;5;0m[38;5;196mbuffer underflow st=0 bufi=3058 size=10277
[0m[48;5;0m[38;5;213m[mpeg @ 0x7ffff06d2360] [0m[48;5;0m[38;5;196mbuffer underflow st=0 bufi=5099 size=10277
[0m[48;5;0m[38;5;213m[mpeg @ 0x7ffff06d2360] [0m[48;5;0m[38;5;196mbuffer underflow st=0 bufi=7140 size=10277
[0m[48;5;0m[38;5;213m[mpeg @ 0x7ffff06d2360] [0m[48;5;0m[38;5;196mbuffer underflow st=0 bufi=9181 size=10277
[0mpts:738000 pts_time:8.2 dts:734400 dts_time:8.16 duration:0 duration_time:0 stream_index:0
[48;5;0m[38;5;213m[mpeg @ 0x7ffff06d2360] [0m[48;5;0m[38;5;196mbuffer underflow st=0 bufi=936 size=2360
[0mpts:741600 pts_time:8.24 dts:738000 dts_time:8.2 duration:0 duration_time:0 stream_index:0
[48;5;0m[38;5;213m[mpeg @ 0x7ffff06d2360] [0m[48;5;0m[38;5;196mbuffer underflow st=0 bufi=608 size=2210
[0mpts:745200 pts_time:8.28 dts:741600 dts_time:8.24 duration:0 duration_time:0 stream_index:0
[48;5;0m[38;5;213m[mpeg @ 0x7ffff06d2360] [0m[48;5;0m[38;5;196mbuffer underflow st=0 bufi=430 size=2848
[0m[48;5;0m[38;5;213m[mpeg @ 0x7ffff06d2360] [0m[48;5;0m[38;5;196mbuffer underflow st=0 bufi=2471 size=2848
[0mpts:748800 pts_time:8.32 dts:745200 dts_time:8.28 duration:0 duration_time:0 stream_index:0
pts:752400 pts_time:8.36 dts:748800 dts_time:8.32 duration:0 duration_time:0 stream_index:0
[48;5;0m[38;5;213m[mpeg @ 0x7ffff06d2360] [0m[48;5;0m[38;5;196mbuffer underflow st=0 bufi=47 size=1777
[0mpts:756000 pts_time:8.4 dts:752400 dts_time:8.36 duration:0 duration_time:0 stream_index:0
[48;5;0m[38;5;213m[mpeg @ 0x7ffff06d2360] [0m[48;5;0m[38;5;196mbuffer underflow st=0 bufi=302 size=2992
[0m[48;5;0m[38;5;213m[mpeg @ 0x7ffff06d2360] [0m[48;5;0m[38;5;196mbuffer underflow st=0 bufi=2343 size=2992
[0mpts:759600 pts_time:8.44 dts:756000 dts_time:8.4 duration:0 duration_time:0 stream_index:0
[48;5;0m[38;5;213m[mpeg @ 0x7ffff06d2360] [0m[48;5;0m[38;5;196mbuffer underflow st=0 bufi=1383 size=2078
[0mpts:763200 pts_time:8.48 dts:759600 dts_time:8.44 duration:0 duration_time:0 stream_index:0
[48;5;0m[38;5;213m[mpeg @ 0x7ffff06d2360] [0m[48;5;0m[38;5;196mbuffer underflow st=0 bufi=1337 size=1669
[0mpts:766800 pts_time:8.52 dts:763200 dts_time:8.48 duration:0 duration_time:0 stream_index:0
[48;5;0m[38;5;213m[mpeg @ 0x7ffff06d2360] [0m[48;5;0m[38;5;196mbuffer underflow st=0 bufi=1700 size=2395
[0mpts:770400 pts_time:8.56 dts:766800 dts_time:8.52 duration:0 duration_time:0 stream_index:0
[48;5;0m[38;5;213m[mpeg @ 0x7ffff06d2360] [0m[48;5;0m[38;5;196mbuffer underflow st=0 bufi=1337 size=1812
[0mpts:774000 pts_time:8.6 dts:770400 dts_time:8.56 duration:0 duration_time:0 stream_index:0
[48;5;0m[38;5;213m[mpeg @ 0x7ffff06d2360] [0m[48;5;0m[38;5;196mbuffer underflow st=0 bufi=1557 size=2087
[0mpts:777600 pts_time:8.64 dts:774000 dts_time:8.6 duration:0 duration_time:0 stream_index:0
[48;5;0m[38;5;213m[mpeg @ 0x7ffff06d2360] [0m[48;5;0m[38;5;196mbuffer underflow st=0 bufi=1502 size=9212
[0m[48;5;0m[38;5;213m[mpeg @ 0x7ffff06d2360] [0m[48;5;0m[38;5;196mbuffer underflow st=0 bufi=3543 size=9212
[0m[48;5;0m[38;5;213m[mpeg @ 0x7ffff06d2360] [0m[48;5;0m[38;5;196mbuffer underflow st=0 bufi=5584 size=9212
[0m[48;5;0m[38;5;213m[mpeg @ 0x7ffff06d2360] [0m[48;5;0m[38;5;196mbuffer underflow st=0 bufi=7625 size=9212
[0mpts:781200 pts_time:8.68 dts:777600 dts_time:8.64 duration:0 duration_time:0 stream_index:0
[48;5;0m[38;5;213m[mpeg @ 0x7ffff06d2360] [0m[48;5;0m[38;5;196mbuffer underflow st=0 bufi=445 size=1670
[0mpts:784800 pts_time:8.72 dts:781200 dts_time:8.68 duration:0 duration_time:0 stream_index:0
[48;5;0m[38;5;213m[mpeg @ 0x7ffff06d2360] [0m[48;5;0m[38;5;196mbuffer underflow st=0 bufi=807 size=2010
[0mpts:788400 pts_time:8.76 dts:784800 dts_time:8.72 duration:0 duration_time:0 stream_index:0
[48;5;0m[38;5;213m[mpeg @ 0x7ffff06d2360] [0m[48;5;0m[38;5;196mbuffer underflow st=0 bufi=829 size=3155
[0m[48;5;0m[38;5;213m[mpeg @ 0x7ffff06d2360] [0m[48;5;0m[38;5;196mbuffer underflow st=0 bufi=2870 size=3155
[0mpts:792000 pts_time:8.8 dts:788400 dts_time:8.76 duration:0 duration_time:0 stream_index:0
pts:795600 pts_time:8.84 dts:792000 dts_time:8.8 duration:0 duration_time:0 stream_index:0
[48;5;0m[38;5;213m[mpeg @ 0x7ffff06d2360] [0m[48;5;0m[38;5;196mbuffer underflow st=0 bufi=241 size=2012
[0mpts:799200 pts_time:8.88 dts:795600 dts_time:8.84 duration:0 duration_time:0 stream_index:0
[48;5;0m[38;5;213m[mpeg @ 0x7ffff06d2360] [0m[48;5;0m[38;5;196mbuffer underflow st=0 bufi=261 size=2738
[0m[48;5;0m[38;5;213m[mpeg @ 0x7ffff06d2360] [0m[48;5;0m[38;5;196mbuffer underflow st=0 bufi=2302 size=2738
[0mpts:802800 pts_time:8.92 dts:799200 dts_time:8.88 duration:0 duration_time:0 stream_index:0
[48;5;0m[38;5;213m[mpeg @ 0x7ffff06d2360] [0m[48;5;0m[38;5;196mbuffer underflow st=0 bufi=1596 size=2739
[0mpts:806400 pts_time:8.96 dts:802800 dts_time:8.92 duration:0 duration_time:0 stream_index:0
[48;5;0m[38;5;213m[mpeg @ 0x7ffff06d2360] [0m[48;5;0m[38;5;196mbuffer underflow st=0 bufi=889 size=1576
[0mpts:810000 pts_time:9 dts:806400 dts_time:8.96 duration:0 duration_time:0 stream_index:0
[48;5;0m[38;5;213m[mpeg @ 0x7ffff06d2360] [0m[48;5;0m[38;5;196mbuffer underflow st=0 bufi=1345 size=2004
[0mpts:813600 pts_time:9.04 dts:810000 dts_time:9 duration:0 duration_time:0 stream_index:0
[48;5;0m[38;5;213m[mpeg @ 0x7ffff06d2360] [0m[48;5;0m[38;5;196mbuffer underflow st=0 bufi=1373 size=2699
[0mpts:817200 pts_time:9.08 dts:813600 dts_time:9.04 duration:0 duration_time:0 stream_index:0
[48;5;0m[38;5;213m[mpeg @ 0x7ffff06d2360] [0m[48;5;0m[38;5;196mbuffer underflow st=0 bufi=706 size=1683
[0mpts:820800 pts_time:9.12 dts:817200 dts_time:9.08 duration:0 duration_time:0 stream_index:0
[48;5;0m[38;5;213m[mpeg @ 0x7ffff06d2360] [0m[48;5;0m[38;5;196mbuffer underflow st=0 bufi=1055 size=10190
[0m[48;5;0m[38;5;213m[mpeg @ 0x7ffff06d2360] [0m[48;5;0m[38;5;196mbuffer underflow st=0 bufi=3096 size=10190
[0m[48;5;0m[38;5;213m[mpeg @ 0x7ffff06d2360] [0m[48;5;0m[38;5;196mbuffer underflow st=0 bufi=5125 size=10190
[0m[48;5;0m[38;5;213m[mpeg @ 0x7ffff06d2360] [0m[48;5;0m[38;5;196mbuffer underflow st=0 bufi=7166 size=10190
[0m[48;5;0m[38;5;213m[mpeg @ 0x7ffff06d2360] [0m[48;5;0m[38;5;196mbuffer underflow st=0 bufi=9207 size=10190
[0mpts:824400 pts_time:9.16 dts:820800 dts_time:9.12 duration:0 duration_time:0 stream_index:0
[48;5;0m[38;5;213m[mpeg @ 0x7ffff06d2360] [0m[48;5;0m[38;5;196mbuffer underflow st=0 bufi=1049 size=2374
[0mpts:828000 pts_time:9.2 dts:824400 dts_time:9.16 duration:0 duration_time:0 stream_index:0
[48;5;0m[38;5;213m[mpeg @ 0x7ffff06d2360] [0m[48;5;0m[38;5;196mbuffer underflow st=0 bufi=707 size=2210
[0mpts:831600 pts_time:9.24 dts:828000 dts_time:9.2 duration:0 duration_time:0 stream_index:0
[48;5;0m[38;5;213m[mpeg @ 0x7ffff06d2360] [0m[48;5;0m[38;5;196mbuffer underflow st=0 bufi=529 size=3191
[0m[48;5;0m[38;5;213m[mpeg @ 0x7ffff06d2360] [0m[48;5;0m[38;5;196mbuffer underflow st=0 bufi=2570 size=3191
[0mpts:835200 pts_time:9.28 dts:831600 dts_time:9.24 duration:0 duration_time:0 stream_index:0
[48;5;0m[38;5;213m[mpeg @ 0x7ffff06d2360] [0m[48;5;0m[38;5;196mbuffer underflow st=0 bufi=1411 size=1674
[0mpts:838800 pts_time:9.32 dts:835200 dts_time:9.28 duration:0 duration_time:0 stream_index:0
[48;5;0m[38;5;213m[mpeg @ 0x7ffff06d2360] [0m[48;5;0m[38;5;196mbuffer underflow st=0 bufi=1769 size=2060
[0mpts:842400 pts_time:9.36 dts:838800 dts_time:9.32 duration:0 duration_time:0 stream_index:0
[48;5;0m[38;5;213m[mpeg @ 0x7ffff06d2360] [0m[48;5;0m[38;5;196mbuffer underflow st=0 bufi=1741 size=3537
[0mpts:846000 pts_time:9.4 dts:842400 dts_time:9.36 duration:0 duration_time:0 stream_index:0
[48;5;0m[38;5;213m[mpeg @ 0x7ffff06d2360] [0m[48;5;0m[38;5;196mbuffer underflow st=0 bufi=236 size=2912
[0m[48;5;0m[38;5;213m[mpeg @ 0x7ffff06d2360] [0m[48;5;0m[38;5;196mbuffer underflow st=0 bufi=2277 size=2912
[0mpts:849600 pts_time:9.44 dts:846000 dts_time:9.4 duration:0 duration_time:0 stream_index:0
[48;5;0m[38;5;213m[mpeg @ 0x7ffff06d2360] [0m[48;5;0m[38;5;196mbuffer underflow st=0 bufi=1397 size=2237
[0mpts:853200 pts_time:9.48 dts:849600 dts_time:9.44 duration:0 duration_time:0 stream_index:0
[48;5;0m[38;5;213m[mpeg @ 0x7ffff06d2360] [0m[48;5;0m[38;5;196mbuffer underflow st=0 bufi=1192 size=2773
[0mpts:856800 pts_time:9.52 dts:853200 dts_time:9.48 duration:0 duration_time:0 stream_index:0
[48;5;0m[38;5;213m[mpeg @ 0x7ffff06d2360] [0m[48;5;0m[38;5;196mbuffer underflow st=0 bufi=451 size=2786
[0m[48;5;0m[38;5;213m[mpeg @ 0x7ffff06d2360] [0m[48;5;0m[38;5;196mbuffer underflow st=0 bufi=2492 size=2786
[0mpts:860400 pts_time:9.56 dts:856800 dts_time:9.52 duration:0 duration_time:0 stream_index:0
[48;5;0m[38;5;213m[mpeg @ 0x7ffff06d2360] [0m[48;5;0m[38;5;196mbuffer underflow st=0 bufi=1738 size=2497
[0mpts:864000 pts_time:9.6 dts:860400 dts_time:9.56 duration:0 duration_time:0 stream_index:0
[48;5;0m[38;5;213m[mpeg @ 0x7ffff06d2360] [0m[48;5;0m[38;5;196mbuffer underflow st=0 bufi=1273 size=9210
[0m[48;5;0m[38;5;213m[mpeg @ 0x7ffff06d2360] [0m[48;5;0m[38;5;196mbuffer underflow st=0 bufi=3314 size=9210
[0m[48;5;0m[38;5;213m[mpeg @ 0x7ffff06d2360] [0m[48;5;0m[38;5;196mbuffer underflow st=0 bufi=5355 size=9210
[0m[48;5;0m[38;5;213m[mpeg @ 0x7ffff06d2360] [0m[48;5;0m[38;5;196mbuffer underflow st=0 bufi=7396 size=9210
[0mpts:867600 pts_time:9.64 dts:864000 dts_time:9.6 duration:0 duration_time:0 stream_index:0
[48;5;0m[38;5;213m[mpeg @ 0x7ffff06d2360] [0m[48;5;0m[38;5;196mbuffer underflow st=0 bufi=218 size=1985
[0mpts:871200 pts_time:9.68 dts:867600 dts_time:9.64 duration:0 duration_time:0 stream_index:0
[48;5;0m[38;5;213m[mpeg @ 0x7ffff06d2360] [0m[48;5;0m[38;5;196mbuffer underflow st=0 bufi=265 size=2557
[0m[48;5;0m[38;5;213m[mpeg @ 0x7ffff06d2360] [0m[48;5;0m[38;5;196mbuffer underflow st=0 bufi=2306 size=2557
[0mpts:874800 pts_time:9.72 dts:871200 dts_time:9.68 duration:0 duration_time:0 stream_index:0
[48;5;0m[38;5;213m[mpeg @ 0x7ffff06d2360] [0m[48;5;0m[38;5;196mbuffer underflow st=0 bufi=1781 size=3428
[0mpts:878400 pts_time:9.76 dts:874800 dts_time:9.72 duration:0 duration_time:0 stream_index:0
[48;5;0m[38;5;213m[mpeg @ 0x7ffff06d2360] [0m[48;5;0m[38;5;196mbuffer underflow st=0 bufi=385 size=1590
[0mpts:882000 pts_time:9.8 dts:878400 dts_time:9.76 duration:0 duration_time:0 stream_index:0
[48;5;0m[38;5;213m[mpeg @ 0x7ffff06d2360] [0m[48;5;0m[38;5;196mbuffer underflow st=0 bufi=827 size=1921
[0mpts:885600 pts_time:9.84 dts:882000 dts_time:9.8 duration:0 duration_time:0 stream_index:0
[48;5;0m[38;5;213m[mpeg @ 0x7ffff06d2360] [0m[48;5;0m[38;5;196mbuffer underflow st=0 bufi=938 size=2857
[0mpts:889200 pts_time:9.88 dts:885600 dts_time:9.84 duration:0 duration_time:0 stream_index:0
[48;5;0m[38;5;213m[mpeg @ 0x7ffff06d2360] [0m[48;5;0m[38;5;196mbuffer underflow st=0 bufi=113 size=2736
[0m[48;5;0m[38;5;213m[mpeg @ 0x7ffff06d2360] [0m[48;5;0m[38;5;196mbuffer underflow st=0 bufi=2154 size=2736
[0mpts:892800 pts_time:9.92 dts:889200 dts_time:9.88 duration:0 duration_time:0 stream_index:0
[48;5;0m[38;5;213m[mpeg @ 0x7ffff06d2360] [0m[48;5;0m[38;5;196mbuffer underflow st=0 bufi=1450 size=1505
[0mpts:896400 pts_time:9.96 dts:892800 dts_time:9.92 duration:0 duration_time:0 stream_index:0
pts:900000 pts_time:10 dts:896400 dts_time:9.96 duration:0 duration_time:0 stream_index:0
[48;5;0m[38;5;213m[mpeg @ 0x7ffff06d2360] [0m[48;5;0m[38;5;196mbuffer underflow st=0 bufi=189 size=2168
[0m